<svg xmlns="http://www.w3.org/2000/svg" width="256" height="256" viewBox="0 0 100 100"><rect width="100" height="100" rx="50" fill="#ffd700"></rect><path d="M60.61 26.54Q61.29 25.45 62.58 25.04Q63.87 24.64 65.81 24.64Q67.75 24.64 68.90 24.98Q70.06 25.32 70.67 25.79Q71.28 26.27 71.56 27.22L71.56 27.22Q71.96 28.38 71.96 30.76L71.96 30.76L71.96 51.29Q71.96 60.27 66.39 67.61L66.39 67.61Q63.67 71.08 59.38 73.22Q55.10 75.36 49.90 75.36Q44.70 75.36 40.45 73.19Q36.20 71.01 33.54 67.48L33.54 67.48Q28.04 60.27 28.04 51.16L28.04 51.16L28.04 30.69Q28.04 29.06 28.14 28.27Q28.24 27.49 28.78 26.47Q29.33 25.45 30.62 25.04Q31.91 24.64 34.09 24.64Q36.26 24.64 37.56 25.04Q38.85 25.45 39.32 26.47L39.32 26.47Q40.14 28.04 40.14 30.76L40.14 30.76L40.14 51.16Q40.14 55.30 42.18 59.04L42.18 59.04Q43.20 60.95 45.24 62.10Q47.28 63.26 50.07 63.26L50.07 63.26Q55.03 63.26 57.48 59.59Q59.93 55.92 59.93 51.09L59.93 51.09L59.93 30.28Q59.93 27.63 60.61 26.54Z" fill="#0057b7"></path></svg>