<svg version="1.2" xmlns="http://www.w3.org/2000/svg" viewBox="0 0 142 142" width="142" height="142"><style>.a{fill:#fff}</style><path class="a" d="m11.8 11.8h119.5v119.4h-119.5z"/><path fill-rule="evenodd" d="m37.2 3c0 1.6-1.3 2.9-3 2.9h-22.4c-3.2 0-5.9 2.7-5.9 5.9v22.1c0 0.1 0.1 0.1 0.1 0.3 0 1.6-1.3 2.9-3 2.9-1.6 0-2.9-1.3-2.9-2.9h-0.1v-22.4c0-6.5 5.3-11.8 11.8-11.8h22.4c1.7 0 3 1.3 3 3zm101.8 34.1c-1.6 0-2.9-1.3-2.9-2.9v-22.4c0-3.2-2.7-5.9-5.9-5.9h-22.2c0 0-0.1 0.1-0.2 0.1-1.7 0-3-1.3-3-3 0-1.6 1.3-2.9 3-2.9v-0.1h22.4c6.5 0 11.8 5.3 11.8 11.8v22.4c0 1.6-1.3 2.9-3 2.9zm-34.2 101.8c0-1.7 1.3-3 3-3h22.4c3.2 0 5.9-2.6 5.9-5.9v-22.1c0 0-0.1-0.1-0.1-0.2 0-1.7 1.3-3 3-3 1.6 0 2.9 1.3 2.9 3h0.1v22.3c0 6.5-5.3 11.9-11.8 11.9h-22.4c-1.7 0-3-1.3-3-3zm-101.8-34.2c1.6 0 2.9 1.3 2.9 3v22.3c0 3.3 2.7 5.9 5.9 5.9h22.2c0.1 0 0.1 0 0.2 0 1.7 0 3 1.3 3 2.9 0 1.7-1.3 3-3 3v0.1h-22.4c-6.5 0-11.8-5.4-11.8-11.9v-22.3c0-1.7 1.3-3 3-3z"/><path  d="m58.9 20.9h3.6v3.5h-3.6z"/><path  d="m62.4 20.9h3.5v3.5h-3.5z"/><path  d="m69.3 20.9h3.5v3.5h-3.5z"/><path  d="m76.2 20.9h3.5v3.5h-3.5z"/><path  d="m79.6 20.9h3.6v3.5h-3.6z"/><path  d="m83.1 20.9h3.6v3.5h-3.6z"/><path  d="m86.6 20.9h3.5v3.5h-3.5z"/><path  d="m90 20.9h3.6v3.5h-3.6z"/><path  d="m52 24.3h3.5v3.6h-3.5z"/><path  d="m58.9 24.3h3.6v3.6h-3.6z"/><path  d="m62.4 24.3h3.5v3.6h-3.5z"/><path  d="m69.3 24.3h3.5v3.6h-3.5z"/><path  d="m72.7 24.3h3.6v3.6h-3.6z"/><path  d="m76.2 24.3h3.5v3.6h-3.5z"/><path  d="m83.1 24.3h3.6v3.6h-3.6z"/><path  d="m48.5 27.8h3.6v3.5h-3.6z"/><path  d="m55.4 27.8h3.6v3.5h-3.6z"/><path  d="m62.4 27.8h3.5v3.5h-3.5z"/><path  d="m72.7 27.8h3.6v3.5h-3.6z"/><path  d="m90 27.8h3.6v3.5h-3.6z"/><path  d="m48.5 31.2h3.6v3.6h-3.6z"/><path  d="m52 31.2h3.5v3.6h-3.5z"/><path  d="m65.8 31.2h3.6v3.6h-3.6z"/><path  d="m69.3 31.2h3.5v3.6h-3.5z"/><path  d="m72.7 31.2h3.6v3.6h-3.6z"/><path  d="m79.6 31.2h3.6v3.6h-3.6z"/><path  d="m86.6 31.2h3.5v3.6h-3.5z"/><path  d="m48.5 34.7h3.6v3.5h-3.6z"/><path  d="m58.9 34.7h3.6v3.5h-3.6z"/><path  d="m62.4 34.7h3.5v3.5h-3.5z"/><path  d="m76.2 34.7h3.5v3.5h-3.5z"/><path  d="m86.6 34.7h3.5v3.5h-3.5z"/><path  d="m90 34.7h3.6v3.5h-3.6z"/><path  d="m48.5 38.1h3.6v3.6h-3.6z"/><path  d="m52 38.1h3.5v3.6h-3.5z"/><path  d="m62.4 38.1h3.5v3.6h-3.5z"/><path  d="m69.3 38.1h3.5v3.6h-3.5z"/><path  d="m72.7 38.1h3.6v3.6h-3.6z"/><path  d="m79.6 38.1h3.6v3.6h-3.6z"/><path  d="m90 38.1h3.6v3.6h-3.6z"/><path  d="m48.5 41.6h3.6v3.5h-3.6z"/><path  d="m55.4 41.6h3.6v3.5h-3.6z"/><path  d="m62.4 41.6h3.5v3.5h-3.5z"/><path  d="m69.3 41.6h3.5v3.5h-3.5z"/><path  d="m76.2 41.6h3.5v3.5h-3.5z"/><path  d="m83.1 41.6h3.6v3.5h-3.6z"/><path  d="m90 41.6h3.6v3.5h-3.6z"/><path  d="m48.5 45h3.6v3.6h-3.6z"/><path  d="m52 45h3.5v3.6h-3.5z"/><path  d="m55.4 45h3.6v3.6h-3.6z"/><path  d="m62.4 45h3.5v3.6h-3.5z"/><path  d="m69.3 45h3.5v3.6h-3.5z"/><path  d="m76.2 45h3.5v3.6h-3.5z"/><path  d="m83.1 45h3.6v3.6h-3.6z"/><path  d="m20.9 48.5h3.5v3.5h-3.5z"/><path  d="m27.8 48.5h3.6v3.5h-3.6z"/><path  d="m31.3 48.5h3.5v3.5h-3.5z"/><path  d="m34.7 48.5h3.6v3.5h-3.6z"/><path  d="m38.2 48.5h3.5v3.5h-3.5z"/><path  d="m41.6 48.5h3.6v3.5h-3.6z"/><path  d="m52 48.5h3.5v3.5h-3.5z"/><path  d="m58.9 48.5h3.6v3.5h-3.6z"/><path  d="m62.4 48.5h3.5v3.5h-3.5z"/><path  d="m79.6 48.5h3.6v3.5h-3.6z"/><path  d="m96.9 48.5h3.6v3.5h-3.6z"/><path  d="m100.4 48.5h3.5v3.5h-3.5z"/><path  d="m103.8 48.5h3.6v3.5h-3.6z"/><path  d="m107.3 48.5h3.6v3.5h-3.6z"/><path  d="m110.7 48.5h3.6v3.5h-3.6z"/><path  d="m24.3 51.9h3.6v3.6h-3.6z"/><path  d="m34.7 51.9h3.6v3.6h-3.6z"/><path  d="m45.1 51.9h3.5v3.6h-3.5z"/><path  d="m55.4 51.9h3.6v3.6h-3.6z"/><path  d="m65.8 51.9h3.6v3.6h-3.6z"/><path  d="m76.2 51.9h3.5v3.6h-3.5z"/><path  d="m83.1 51.9h3.6v3.6h-3.6z"/><path  d="m86.6 51.9h3.5v3.6h-3.5z"/><path  d="m90 51.9h3.6v3.6h-3.6z"/><path  d="m93.5 51.9h3.5v3.6h-3.5z"/><path  d="m96.9 51.9h3.6v3.6h-3.6z"/><path  d="m100.4 51.9h3.5v3.6h-3.5z"/><path  d="m103.8 51.9h3.6v3.6h-3.6z"/><path  d="m117.7 51.9h3.5v3.6h-3.5z"/><path  d="m24.3 55.4h3.6v3.5h-3.6z"/><path  d="m27.8 55.4h3.6v3.5h-3.6z"/><path  d="m31.3 55.4h3.5v3.5h-3.5z"/><path  d="m34.7 55.4h3.6v3.5h-3.6z"/><path  d="m38.2 55.4h3.5v3.5h-3.5z"/><path  d="m41.6 55.4h3.6v3.5h-3.6z"/><path  d="m55.4 55.4h3.6v3.5h-3.6z"/><path  d="m58.9 55.4h3.6v3.5h-3.6z"/><path  d="m65.8 55.4h3.6v3.5h-3.6z"/><path  d="m69.3 55.4h3.5v3.5h-3.5z"/><path  d="m72.7 55.4h3.6v3.5h-3.6z"/><path  d="m76.2 55.4h3.5v3.5h-3.5z"/><path  d="m90 55.4h3.6v3.5h-3.6z"/><path  d="m93.5 55.4h3.5v3.5h-3.5z"/><path  d="m27.8 58.8h3.6v3.6h-3.6z"/><path  d="m31.3 58.8h3.5v3.6h-3.5z"/><path  d="m34.7 58.8h3.6v3.6h-3.6z"/><path  d="m48.5 58.8h3.6v3.6h-3.6z"/><path  d="m52 58.8h3.5v3.6h-3.5z"/><path  d="m55.4 58.8h3.6v3.6h-3.6z"/><path  d="m58.9 58.8h3.6v3.6h-3.6z"/><path  d="m62.4 58.8h3.5v3.6h-3.5z"/><path  d="m65.8 58.8h3.6v3.6h-3.6z"/><path  d="m76.2 58.8h3.5v3.6h-3.5z"/><path  d="m86.6 58.8h3.5v3.6h-3.5z"/><path  d="m96.9 58.8h3.6v3.6h-3.6z"/><path  d="m100.4 58.8h3.5v3.6h-3.5z"/><path  d="m107.3 58.8h3.6v3.6h-3.6z"/><path  d="m114.2 58.8h3.6v3.6h-3.6z"/><path  d="m24.3 62.3h3.6v3.6h-3.6z"/><path  d="m27.8 62.3h3.6v3.6h-3.6z"/><path  d="m31.3 62.3h3.5v3.6h-3.5z"/><path  d="m34.7 62.3h3.6v3.6h-3.6z"/><path  d="m41.6 62.3h3.6v3.6h-3.6z"/><path  d="m45.1 62.3h3.5v3.6h-3.5z"/><path  d="m48.5 62.3h3.6v3.6h-3.6z"/><path  d="m52 62.3h3.5v3.6h-3.5z"/><path  d="m55.4 62.3h3.6v3.6h-3.6z"/><path  d="m58.9 62.3h3.6v3.6h-3.6z"/><path  d="m69.3 62.3h3.5v3.6h-3.5z"/><path  d="m79.6 62.3h3.6v3.6h-3.6z"/><path  d="m83.1 62.3h3.6v3.6h-3.6z"/><path  d="m86.6 62.3h3.5v3.6h-3.5z"/><path  d="m107.3 62.3h3.6v3.6h-3.6z"/><path  d="m110.7 62.3h3.6v3.6h-3.6z"/><path  d="m20.9 65.7h3.5v3.6h-3.5z"/><path  d="m34.7 65.7h3.6v3.6h-3.6z"/><path  d="m38.2 65.7h3.5v3.6h-3.5z"/><path  d="m45.1 65.7h3.5v3.6h-3.5z"/><path  d="m48.5 65.7h3.6v3.6h-3.6z"/><path  d="m52 65.7h3.5v3.6h-3.5z"/><path  d="m55.4 65.7h3.6v3.6h-3.6z"/><path  d="m76.2 65.7h3.5v3.6h-3.5z"/><path  d="m79.6 65.7h3.6v3.6h-3.6z"/><path  d="m83.1 65.7h3.6v3.6h-3.6z"/><path  d="m86.6 65.7h3.5v3.6h-3.5z"/><path  d="m90 65.7h3.6v3.6h-3.6z"/><path  d="m93.5 65.7h3.5v3.6h-3.5z"/><path  d="m96.9 65.7h3.6v3.6h-3.6z"/><path  d="m103.8 65.7h3.6v3.6h-3.6z"/><path  d="m117.7 65.7h3.5v3.6h-3.5z"/><path  d="m20.9 69.2h3.5v3.6h-3.5z"/><path  d="m31.3 69.2h3.5v3.6h-3.5z"/><path  d="m38.2 69.2h3.5v3.6h-3.5z"/><path  d="m41.6 69.2h3.6v3.6h-3.6z"/><path  d="m62.4 69.2h3.5v3.6h-3.5z"/><path  d="m72.7 69.2h3.6v3.6h-3.6z"/><path  d="m79.6 69.2h3.6v3.6h-3.6z"/><path  d="m90 69.2h3.6v3.6h-3.6z"/><path  d="m96.9 69.2h3.6v3.6h-3.6z"/><path  d="m100.4 69.2h3.5v3.6h-3.5z"/><path  d="m107.3 69.2h3.6v3.6h-3.6z"/><path  d="m110.7 69.2h3.6v3.6h-3.6z"/><path  d="m24.3 72.7h3.6v3.5h-3.6z"/><path  d="m38.2 72.7h3.5v3.5h-3.5z"/><path  d="m48.5 72.7h3.6v3.5h-3.6z"/><path  d="m55.4 72.7h3.6v3.5h-3.6z"/><path  d="m58.9 72.7h3.6v3.5h-3.6z"/><path  d="m69.3 72.7h3.5v3.5h-3.5z"/><path  d="m72.7 72.7h3.6v3.5h-3.6z"/><path  d="m76.2 72.7h3.5v3.5h-3.5z"/><path  d="m83.1 72.7h3.6v3.5h-3.6z"/><path  d="m86.6 72.7h3.5v3.5h-3.5z"/><path  d="m96.9 72.7h3.6v3.5h-3.6z"/><path  d="m100.4 72.7h3.5v3.5h-3.5z"/><path  d="m103.8 72.7h3.6v3.5h-3.6z"/><path  d="m114.2 72.7h3.6v3.5h-3.6z"/><path  d="m27.8 76.1h3.6v3.6h-3.6z"/><path  d="m31.3 76.1h3.5v3.6h-3.5z"/><path  d="m41.6 76.1h3.6v3.6h-3.6z"/><path  d="m52 76.1h3.5v3.6h-3.5z"/><path  d="m55.4 76.1h3.6v3.6h-3.6z"/><path  d="m72.7 76.1h3.6v3.6h-3.6z"/><path  d="m79.6 76.1h3.6v3.6h-3.6z"/><path  d="m100.4 76.1h3.5v3.6h-3.5z"/><path  d="m107.3 76.1h3.6v3.6h-3.6z"/><path  d="m110.7 76.1h3.6v3.6h-3.6z"/><path  d="m20.9 79.6h3.5v3.5h-3.5z"/><path  d="m24.3 79.6h3.6v3.5h-3.6z"/><path  d="m27.8 79.6h3.6v3.5h-3.6z"/><path  d="m31.3 79.6h3.5v3.5h-3.5z"/><path  d="m34.7 79.6h3.6v3.5h-3.6z"/><path  d="m38.2 79.6h3.5v3.5h-3.5z"/><path  d="m52 79.6h3.5v3.5h-3.5z"/><path  d="m55.4 79.6h3.6v3.5h-3.6z"/><path  d="m58.9 79.6h3.6v3.5h-3.6z"/><path  d="m65.8 79.6h3.6v3.5h-3.6z"/><path  d="m69.3 79.6h3.5v3.5h-3.5z"/><path  d="m76.2 79.6h3.5v3.5h-3.5z"/><path  d="m79.6 79.6h3.6v3.5h-3.6z"/><path  d="m83.1 79.6h3.6v3.5h-3.6z"/><path  d="m86.6 79.6h3.5v3.5h-3.5z"/><path  d="m90 79.6h3.6v3.5h-3.6z"/><path  d="m93.5 79.6h3.5v3.5h-3.5z"/><path  d="m96.9 79.6h3.6v3.5h-3.6z"/><path  d="m100.4 79.6h3.5v3.5h-3.5z"/><path  d="m103.8 79.6h3.6v3.5h-3.6z"/><path  d="m110.7 79.6h3.6v3.5h-3.6z"/><path  d="m117.7 79.6h3.5v3.5h-3.5z"/><path  d="m20.9 83h3.5v3.6h-3.5z"/><path  d="m31.3 83h3.5v3.6h-3.5z"/><path  d="m38.2 83h3.5v3.6h-3.5z"/><path  d="m41.6 83h3.6v3.6h-3.6z"/><path  d="m45.1 83h3.5v3.6h-3.5z"/><path  d="m58.9 83h3.6v3.6h-3.6z"/><path  d="m62.4 83h3.5v3.6h-3.5z"/><path  d="m65.8 83h3.6v3.6h-3.6z"/><path  d="m69.3 83h3.5v3.6h-3.5z"/><path  d="m72.7 83h3.6v3.6h-3.6z"/><path  d="m76.2 83h3.5v3.6h-3.5z"/><path  d="m83.1 83h3.6v3.6h-3.6z"/><path  d="m90 83h3.6v3.6h-3.6z"/><path  d="m96.9 83h3.6v3.6h-3.6z"/><path  d="m100.4 83h3.5v3.6h-3.5z"/><path  d="m110.7 83h3.6v3.6h-3.6z"/><path  d="m20.9 86.5h3.5v3.5h-3.5z"/><path  d="m31.3 86.5h3.5v3.5h-3.5z"/><path  d="m38.2 86.5h3.5v3.5h-3.5z"/><path  d="m45.1 86.5h3.5v3.5h-3.5z"/><path  d="m62.4 86.5h3.5v3.5h-3.5z"/><path  d="m65.8 86.5h3.6v3.5h-3.6z"/><path  d="m76.2 86.5h3.5v3.5h-3.5z"/><path  d="m100.4 86.5h3.5v3.5h-3.5z"/><path  d="m103.8 86.5h3.6v3.5h-3.6z"/><path  d="m114.2 86.5h3.6v3.5h-3.6z"/><path  d="m20.9 89.9h3.5v3.6h-3.5z"/><path  d="m27.8 89.9h3.6v3.6h-3.6z"/><path  d="m41.6 89.9h3.6v3.6h-3.6z"/><path  d="m45.1 89.9h3.5v3.6h-3.5z"/><path  d="m55.4 89.9h3.6v3.6h-3.6z"/><path  d="m58.9 89.9h3.6v3.6h-3.6z"/><path  d="m62.4 89.9h3.5v3.6h-3.5z"/><path  d="m69.3 89.9h3.5v3.6h-3.5z"/><path  d="m79.6 89.9h3.6v3.6h-3.6z"/><path  d="m90 89.9h3.6v3.6h-3.6z"/><path  d="m93.5 89.9h3.5v3.6h-3.5z"/><path  d="m96.9 89.9h3.6v3.6h-3.6z"/><path  d="m100.4 89.9h3.5v3.6h-3.5z"/><path  d="m103.8 89.9h3.6v3.6h-3.6z"/><path  d="m110.7 89.9h3.6v3.6h-3.6z"/><path  d="m114.2 89.9h3.6v3.6h-3.6z"/><path  d="m117.7 89.9h3.5v3.6h-3.5z"/><path  d="m48.5 93.4h3.6v3.5h-3.6z"/><path  d="m52 93.4h3.5v3.5h-3.5z"/><path  d="m58.9 93.4h3.6v3.5h-3.6z"/><path  d="m62.4 93.4h3.5v3.5h-3.5z"/><path  d="m79.6 93.4h3.6v3.5h-3.6z"/><path  d="m83.1 93.4h3.6v3.5h-3.6z"/><path  d="m90 93.4h3.6v3.5h-3.6z"/><path  d="m103.8 93.4h3.6v3.5h-3.6z"/><path  d="m107.3 93.4h3.6v3.5h-3.6z"/><path  d="m110.7 93.4h3.6v3.5h-3.6z"/><path  d="m114.2 93.4h3.6v3.5h-3.6z"/><path  d="m117.7 93.4h3.5v3.5h-3.5z"/><path  d="m52 96.8h3.5v3.6h-3.5z"/><path  d="m55.4 96.8h3.6v3.6h-3.6z"/><path  d="m58.9 96.8h3.6v3.6h-3.6z"/><path  d="m62.4 96.8h3.5v3.6h-3.5z"/><path  d="m72.7 96.8h3.6v3.6h-3.6z"/><path  d="m76.2 96.8h3.5v3.6h-3.5z"/><path  d="m79.6 96.8h3.6v3.6h-3.6z"/><path  d="m86.6 96.8h3.5v3.6h-3.5z"/><path  d="m90 96.8h3.6v3.6h-3.6z"/><path  d="m96.9 96.8h3.6v3.6h-3.6z"/><path  d="m103.8 96.8h3.6v3.6h-3.6z"/><path  d="m107.3 96.8h3.6v3.6h-3.6z"/><path  d="m110.7 96.8h3.6v3.6h-3.6z"/><path  d="m48.5 100.3h3.6v3.5h-3.6z"/><path  d="m62.4 100.3h3.5v3.5h-3.5z"/><path  d="m69.3 100.3h3.5v3.5h-3.5z"/><path  d="m72.7 100.3h3.6v3.5h-3.6z"/><path  d="m83.1 100.3h3.6v3.5h-3.6z"/><path  d="m86.6 100.3h3.5v3.5h-3.5z"/><path  d="m90 100.3h3.6v3.5h-3.6z"/><path  d="m103.8 100.3h3.6v3.5h-3.6z"/><path  d="m114.2 100.3h3.6v3.5h-3.6z"/><path  d="m117.7 100.3h3.5v3.5h-3.5z"/><path  d="m48.5 103.7h3.6v3.6h-3.6z"/><path  d="m58.9 103.7h3.6v3.6h-3.6z"/><path  d="m62.4 103.7h3.5v3.6h-3.5z"/><path  d="m72.7 103.7h3.6v3.6h-3.6z"/><path  d="m79.6 103.7h3.6v3.6h-3.6z"/><path  d="m83.1 103.7h3.6v3.6h-3.6z"/><path  d="m90 103.7h3.6v3.6h-3.6z"/><path  d="m93.5 103.7h3.5v3.6h-3.5z"/><path  d="m96.9 103.7h3.6v3.6h-3.6z"/><path  d="m100.4 103.7h3.5v3.6h-3.5z"/><path  d="m103.8 103.7h3.6v3.6h-3.6z"/><path  d="m110.7 103.7h3.6v3.6h-3.6z"/><path  d="m48.5 107.2h3.6v3.5h-3.6z"/><path  d="m58.9 107.2h3.6v3.5h-3.6z"/><path  d="m62.4 107.2h3.5v3.5h-3.5z"/><path  d="m69.3 107.2h3.5v3.5h-3.5z"/><path  d="m76.2 107.2h3.5v3.5h-3.5z"/><path  d="m79.6 107.2h3.6v3.5h-3.6z"/><path  d="m83.1 107.2h3.6v3.5h-3.6z"/><path  d="m90 107.2h3.6v3.5h-3.6z"/><path  d="m100.4 107.2h3.5v3.5h-3.5z"/><path  d="m107.3 107.2h3.6v3.5h-3.6z"/><path  d="m110.7 107.2h3.6v3.5h-3.6z"/><path  d="m114.2 107.2h3.6v3.5h-3.6z"/><path  d="m117.7 107.2h3.5v3.5h-3.5z"/><path  d="m48.5 110.6h3.6v3.6h-3.6z"/><path  d="m52 110.6h3.5v3.6h-3.5z"/><path  d="m55.4 110.6h3.6v3.6h-3.6z"/><path  d="m58.9 110.6h3.6v3.6h-3.6z"/><path  d="m62.4 110.6h3.5v3.6h-3.5z"/><path  d="m72.7 110.6h3.6v3.6h-3.6z"/><path  d="m76.2 110.6h3.5v3.6h-3.5z"/><path  d="m79.6 110.6h3.6v3.6h-3.6z"/><path  d="m93.5 110.6h3.5v3.6h-3.5z"/><path  d="m96.9 110.6h3.6v3.6h-3.6z"/><path  d="m100.4 110.6h3.5v3.6h-3.5z"/><path  d="m103.8 110.6h3.6v3.6h-3.6z"/><path  d="m107.3 110.6h3.6v3.6h-3.6z"/><path  d="m110.7 110.6h3.6v3.6h-3.6z"/><path  d="m114.2 110.6h3.6v3.6h-3.6z"/><path  d="m52 114.1h3.5v3.5h-3.5z"/><path  d="m55.4 114.1h3.6v3.5h-3.6z"/><path  d="m72.7 114.1h3.6v3.5h-3.6z"/><path  d="m76.2 114.1h3.5v3.5h-3.5z"/><path  d="m83.1 114.1h3.6v3.5h-3.6z"/><path  d="m90 114.1h3.6v3.5h-3.6z"/><path  d="m100.4 114.1h3.5v3.5h-3.5z"/><path  d="m107.3 114.1h3.6v3.5h-3.6z"/><path  d="m114.2 114.1h3.6v3.5h-3.6z"/><path  d="m48.5 117.5h3.6v3.6h-3.6z"/><path  d="m65.8 117.5h3.6v3.6h-3.6z"/><path  d="m69.3 117.5h3.5v3.6h-3.5z"/><path  d="m72.7 117.5h3.6v3.6h-3.6z"/><path  d="m76.2 117.5h3.5v3.6h-3.5z"/><path  d="m79.6 117.5h3.6v3.6h-3.6z"/><path  d="m86.6 117.5h3.5v3.6h-3.5z"/><path  d="m100.4 117.5h3.5v3.6h-3.5z"/><path  d="m103.8 117.5h3.6v3.6h-3.6z"/><path  d="m107.3 117.5h3.6v3.6h-3.6z"/><path  d="m110.7 117.5h3.6v3.6h-3.6z"/><path fill-rule="evenodd" d="m20.9 20.9h24.2v24.1h-24.2zm3.4 20.7h17.3v-17.2h-17.3z"/><path fill-rule="evenodd" d="m96.9 20.9h24.2v24.1h-24.2zm3.5 20.7h17.3v-17.2h-17.3z"/><path fill-rule="evenodd" d="m20.9 96.8h24.2v24.2h-24.2zm3.4 20.7h17.3v-17.3h-17.3z"/><path  d="m27.8 27.8h10.4v10.3h-10.4z"/><path  d="m103.8 27.8h10.4v10.3h-10.4z"/><path  d="m27.8 103.7h10.4v10.4h-10.4z"/></svg>