<svg version="1.2" xmlns="http://www.w3.org/2000/svg" viewBox="0 0 142 142" width="142" height="142"><style>.a{fill:#fff}</style><path class="a" d="m11.8 11.8h119.5v119.3h-119.5z"/><path fill-rule="evenodd" d="m37.1 3c0 1.6-1.3 2.9-2.9 2.9h-22.4c-3.2 0-5.9 2.7-5.9 5.9v22.1c0 0.1 0.1 0.1 0.1 0.2 0 1.7-1.3 3-3 3-1.6 0-2.9-1.3-2.9-3h-0.1v-22.3c0-6.5 5.3-11.8 11.8-11.8h22.4c1.6 0 2.9 1.3 2.9 3zm101.8 34.1c-1.6 0-2.9-1.3-2.9-3v-22.3c0-3.2-2.7-5.9-5.9-5.9h-22.1c-0.1 0-0.2 0.1-0.3 0.1-1.6 0-2.9-1.3-2.9-3 0-1.6 1.3-2.9 2.9-2.9v-0.1h22.4c6.5 0 11.8 5.3 11.8 11.8v22.3c0 1.7-1.3 3-3 3zm-34.1 101.7c0-1.6 1.3-2.9 2.9-2.9h22.4c3.2 0 5.9-2.7 5.9-5.9v-22.1c0-0.1-0.1-0.2-0.1-0.3 0-1.6 1.3-2.9 3-2.9 1.6 0 2.9 1.3 2.9 2.9h0.1v22.4c0 6.5-5.3 11.8-11.8 11.8h-22.4c-1.6 0-2.9-1.3-2.9-3zm-101.8-34.1c1.6 0 2.9 1.3 2.9 2.9v22.4c0 3.2 2.7 5.9 5.9 5.9h22.1c0.2 0 0.2-0.1 0.3-0.1 1.6 0 2.9 1.3 2.9 3 0 1.6-1.3 2.9-2.9 2.9v0.1h-22.4c-6.5 0-11.8-5.3-11.8-11.8v-22.4c0-1.6 1.3-2.9 3-2.9z"/><path  d="m54.3 20.8h3.1v3.2h-3.1z"/><path  d="m57.3 20.8h3.1v3.2h-3.1z"/><path  d="m60.3 20.8h3.2v3.2h-3.2z"/><path  d="m69.4 20.8h3.2v3.2h-3.2z"/><path  d="m72.5 20.8h3.1v3.2h-3.1z"/><path  d="m75.5 20.8h3.1v3.2h-3.1z"/><path  d="m78.5 20.8h3.2v3.2h-3.2z"/><path  d="m84.6 20.8h3.1v3.2h-3.1z"/><path  d="m90.7 20.8h3.1v3.2h-3.1z"/><path  d="m48.2 23.9h3.1v3.1h-3.1z"/><path  d="m51.2 23.9h3.1v3.1h-3.1z"/><path  d="m60.3 23.9h3.2v3.1h-3.2z"/><path  d="m63.4 23.9h3.1v3.1h-3.1z"/><path  d="m66.4 23.9h3.1v3.1h-3.1z"/><path  d="m69.4 23.9h3.2v3.1h-3.2z"/><path  d="m72.5 23.9h3.1v3.1h-3.1z"/><path  d="m81.6 23.9h3.1v3.1h-3.1z"/><path  d="m84.6 23.9h3.1v3.1h-3.1z"/><path  d="m87.6 23.9h3.2v3.1h-3.2z"/><path  d="m45.2 26.9h3.1v3.1h-3.1z"/><path  d="m48.2 26.9h3.1v3.1h-3.1z"/><path  d="m54.3 26.9h3.1v3.1h-3.1z"/><path  d="m60.3 26.9h3.2v3.1h-3.2z"/><path  d="m66.4 26.9h3.1v3.1h-3.1z"/><path  d="m72.5 26.9h3.1v3.1h-3.1z"/><path  d="m75.5 26.9h3.1v3.1h-3.1z"/><path  d="m81.6 26.9h3.1v3.1h-3.1z"/><path  d="m84.6 26.9h3.1v3.1h-3.1z"/><path  d="m90.7 26.9h3.1v3.1h-3.1z"/><path  d="m93.7 26.9h3.1v3.1h-3.1z"/><path  d="m45.2 29.9h3.1v3.2h-3.1z"/><path  d="m48.2 29.9h3.1v3.2h-3.1z"/><path  d="m54.3 29.9h3.1v3.2h-3.1z"/><path  d="m57.3 29.9h3.1v3.2h-3.1z"/><path  d="m63.4 29.9h3.1v3.2h-3.1z"/><path  d="m66.4 29.9h3.1v3.2h-3.1z"/><path  d="m69.4 29.9h3.2v3.2h-3.2z"/><path  d="m78.5 29.9h3.2v3.2h-3.2z"/><path  d="m81.6 29.9h3.1v3.2h-3.1z"/><path  d="m87.6 29.9h3.2v3.2h-3.2z"/><path  d="m90.7 29.9h3.1v3.2h-3.1z"/><path  d="m45.2 33h3.1v3.1h-3.1z"/><path  d="m48.2 33h3.1v3.1h-3.1z"/><path  d="m54.3 33h3.1v3.1h-3.1z"/><path  d="m57.3 33h3.1v3.1h-3.1z"/><path  d="m60.3 33h3.2v3.1h-3.2z"/><path  d="m66.4 33h3.1v3.1h-3.1z"/><path  d="m72.5 33h3.1v3.1h-3.1z"/><path  d="m75.5 33h3.1v3.1h-3.1z"/><path  d="m90.7 33h3.1v3.1h-3.1z"/><path  d="m45.2 36h3.1v3.1h-3.1z"/><path  d="m48.2 36h3.1v3.1h-3.1z"/><path  d="m57.3 36h3.1v3.1h-3.1z"/><path  d="m60.3 36h3.2v3.1h-3.2z"/><path  d="m63.4 36h3.1v3.1h-3.1z"/><path  d="m66.4 36h3.1v3.1h-3.1z"/><path  d="m69.4 36h3.2v3.1h-3.2z"/><path  d="m72.5 36h3.1v3.1h-3.1z"/><path  d="m81.6 36h3.1v3.1h-3.1z"/><path  d="m84.6 36h3.1v3.1h-3.1z"/><path  d="m87.6 36h3.2v3.1h-3.2z"/><path  d="m45.2 39h3.1v3.2h-3.1z"/><path  d="m51.2 39h3.1v3.2h-3.1z"/><path  d="m57.3 39h3.1v3.2h-3.1z"/><path  d="m63.4 39h3.1v3.2h-3.1z"/><path  d="m69.4 39h3.2v3.2h-3.2z"/><path  d="m75.5 39h3.1v3.2h-3.1z"/><path  d="m81.6 39h3.1v3.2h-3.1z"/><path  d="m87.6 39h3.2v3.2h-3.2z"/><path  d="m93.7 39h3.1v3.2h-3.1z"/><path  d="m45.2 42.1h3.1v3.1h-3.1z"/><path  d="m48.2 42.1h3.1v3.1h-3.1z"/><path  d="m51.2 42.1h3.1v3.1h-3.1z"/><path  d="m54.3 42.1h3.1v3.1h-3.1z"/><path  d="m66.4 42.1h3.1v3.1h-3.1z"/><path  d="m84.6 42.1h3.1v3.1h-3.1z"/><path  d="m87.6 42.1h3.2v3.1h-3.2z"/><path  d="m93.7 42.1h3.1v3.1h-3.1z"/><path  d="m20.9 45.1h3.1v3.1h-3.1z"/><path  d="m26.9 45.1h3.2v3.1h-3.2z"/><path  d="m30 45.1h3.1v3.1h-3.1z"/><path  d="m33 45.1h3.1v3.1h-3.1z"/><path  d="m36 45.1h3.2v3.1h-3.2z"/><path  d="m39.1 45.1h3.1v3.1h-3.1z"/><path  d="m48.2 45.1h3.1v3.1h-3.1z"/><path  d="m60.3 45.1h3.2v3.1h-3.2z"/><path  d="m63.4 45.1h3.1v3.1h-3.1z"/><path  d="m66.4 45.1h3.1v3.1h-3.1z"/><path  d="m72.5 45.1h3.1v3.1h-3.1z"/><path  d="m87.6 45.1h3.2v3.1h-3.2z"/><path  d="m93.7 45.1h3.1v3.1h-3.1z"/><path  d="m99.8 45.1h3.1v3.1h-3.1z"/><path  d="m102.8 45.1h3.1v3.1h-3.1z"/><path  d="m105.9 45.1h3.1v3.1h-3.1z"/><path  d="m108.9 45.1h3.1v3.1h-3.1z"/><path  d="m111.9 45.1h3.2v3.1h-3.2z"/><path  d="m20.9 48.1h3.1v3.2h-3.1z"/><path  d="m23.9 48.1h3.1v3.2h-3.1z"/><path  d="m26.9 48.1h3.2v3.2h-3.2z"/><path  d="m30 48.1h3.1v3.2h-3.1z"/><path  d="m33 48.1h3.1v3.2h-3.1z"/><path  d="m36 48.1h3.2v3.2h-3.2z"/><path  d="m48.2 48.1h3.1v3.2h-3.1z"/><path  d="m57.3 48.1h3.1v3.2h-3.1z"/><path  d="m69.4 48.1h3.2v3.2h-3.2z"/><path  d="m78.5 48.1h3.2v3.2h-3.2z"/><path  d="m81.6 48.1h3.1v3.2h-3.1z"/><path  d="m84.6 48.1h3.1v3.2h-3.1z"/><path  d="m90.7 48.1h3.1v3.2h-3.1z"/><path  d="m99.8 48.1h3.1v3.2h-3.1z"/><path  d="m102.8 48.1h3.1v3.2h-3.1z"/><path  d="m108.9 48.1h3.1v3.2h-3.1z"/><path  d="m111.9 48.1h3.2v3.2h-3.2z"/><path  d="m115 48.1h3.1v3.2h-3.1z"/><path  d="m118 48.1h3.1v3.2h-3.1z"/><path  d="m20.9 51.2h3.1v3.1h-3.1z"/><path  d="m26.9 51.2h3.2v3.1h-3.2z"/><path  d="m33 51.2h3.1v3.1h-3.1z"/><path  d="m39.1 51.2h3.1v3.1h-3.1z"/><path  d="m57.3 51.2h3.1v3.1h-3.1z"/><path  d="m66.4 51.2h3.1v3.1h-3.1z"/><path  d="m75.5 51.2h3.1v3.1h-3.1z"/><path  d="m81.6 51.2h3.1v3.1h-3.1z"/><path  d="m84.6 51.2h3.1v3.1h-3.1z"/><path  d="m87.6 51.2h3.2v3.1h-3.2z"/><path  d="m93.7 51.2h3.1v3.1h-3.1z"/><path  d="m96.8 51.2h3.1v3.1h-3.1z"/><path  d="m99.8 51.2h3.1v3.1h-3.1z"/><path  d="m105.9 51.2h3.1v3.1h-3.1z"/><path  d="m111.9 51.2h3.2v3.1h-3.2z"/><path  d="m115 51.2h3.1v3.1h-3.1z"/><path  d="m36 54.2h3.2v3.1h-3.2z"/><path  d="m48.2 54.2h3.1v3.1h-3.1z"/><path  d="m51.2 54.2h3.1v3.1h-3.1z"/><path  d="m54.3 54.2h3.1v3.1h-3.1z"/><path  d="m57.3 54.2h3.1v3.1h-3.1z"/><path  d="m63.4 54.2h3.1v3.1h-3.1z"/><path  d="m66.4 54.2h3.1v3.1h-3.1z"/><path  d="m69.4 54.2h3.2v3.1h-3.2z"/><path  d="m78.5 54.2h3.2v3.1h-3.2z"/><path  d="m81.6 54.2h3.1v3.1h-3.1z"/><path  d="m84.6 54.2h3.1v3.1h-3.1z"/><path  d="m87.6 54.2h3.2v3.1h-3.2z"/><path  d="m90.7 54.2h3.1v3.1h-3.1z"/><path  d="m96.8 54.2h3.1v3.1h-3.1z"/><path  d="m99.8 54.2h3.1v3.1h-3.1z"/><path  d="m105.9 54.2h3.1v3.1h-3.1z"/><path  d="m108.9 54.2h3.1v3.1h-3.1z"/><path  d="m111.9 54.2h3.2v3.1h-3.2z"/><path  d="m115 54.2h3.1v3.1h-3.1z"/><path  d="m118 54.2h3.1v3.1h-3.1z"/><path  d="m20.9 57.2h3.1v3.2h-3.1z"/><path  d="m30 57.2h3.1v3.2h-3.1z"/><path  d="m36 57.2h3.2v3.2h-3.2z"/><path  d="m39.1 57.2h3.1v3.2h-3.1z"/><path  d="m45.2 57.2h3.1v3.2h-3.1z"/><path  d="m48.2 57.2h3.1v3.2h-3.1z"/><path  d="m51.2 57.2h3.1v3.2h-3.1z"/><path  d="m54.3 57.2h3.1v3.2h-3.1z"/><path  d="m75.5 57.2h3.1v3.2h-3.1z"/><path  d="m78.5 57.2h3.2v3.2h-3.2z"/><path  d="m84.6 57.2h3.1v3.2h-3.1z"/><path  d="m90.7 57.2h3.1v3.2h-3.1z"/><path  d="m93.7 57.2h3.1v3.2h-3.1z"/><path  d="m102.8 57.2h3.1v3.2h-3.1z"/><path  d="m105.9 57.2h3.1v3.2h-3.1z"/><path  d="m108.9 57.2h3.1v3.2h-3.1z"/><path  d="m115 57.2h3.1v3.2h-3.1z"/><path  d="m118 57.2h3.1v3.2h-3.1z"/><path  d="m20.9 60.3h3.1v3.1h-3.1z"/><path  d="m23.9 60.3h3.1v3.1h-3.1z"/><path  d="m26.9 60.3h3.2v3.1h-3.2z"/><path  d="m30 60.3h3.1v3.1h-3.1z"/><path  d="m33 60.3h3.1v3.1h-3.1z"/><path  d="m36 60.3h3.2v3.1h-3.2z"/><path  d="m42.1 60.3h3.1v3.1h-3.1z"/><path  d="m54.3 60.3h3.1v3.1h-3.1z"/><path  d="m57.3 60.3h3.1v3.1h-3.1z"/><path  d="m60.3 60.3h3.2v3.1h-3.2z"/><path  d="m63.4 60.3h3.1v3.1h-3.1z"/><path  d="m66.4 60.3h3.1v3.1h-3.1z"/><path  d="m69.4 60.3h3.2v3.1h-3.2z"/><path  d="m81.6 60.3h3.1v3.1h-3.1z"/><path  d="m84.6 60.3h3.1v3.1h-3.1z"/><path  d="m90.7 60.3h3.1v3.1h-3.1z"/><path  d="m99.8 60.3h3.1v3.1h-3.1z"/><path  d="m102.8 60.3h3.1v3.1h-3.1z"/><path  d="m111.9 60.3h3.2v3.1h-3.2z"/><path  d="m115 60.3h3.1v3.1h-3.1z"/><path  d="m118 60.3h3.1v3.1h-3.1z"/><path  d="m23.9 63.3h3.1v3.1h-3.1z"/><path  d="m33 63.3h3.1v3.1h-3.1z"/><path  d="m36 63.3h3.2v3.1h-3.2z"/><path  d="m39.1 63.3h3.1v3.1h-3.1z"/><path  d="m63.4 63.3h3.1v3.1h-3.1z"/><path  d="m78.5 63.3h3.2v3.1h-3.2z"/><path  d="m84.6 63.3h3.1v3.1h-3.1z"/><path  d="m93.7 63.3h3.1v3.1h-3.1z"/><path  d="m96.8 63.3h3.1v3.1h-3.1z"/><path  d="m99.8 63.3h3.1v3.1h-3.1z"/><path  d="m102.8 63.3h3.1v3.1h-3.1z"/><path  d="m105.9 63.3h3.1v3.1h-3.1z"/><path  d="m115 63.3h3.1v3.1h-3.1z"/><path  d="m23.9 66.3h3.1v3.2h-3.1z"/><path  d="m30 66.3h3.1v3.2h-3.1z"/><path  d="m48.2 66.3h3.1v3.2h-3.1z"/><path  d="m51.2 66.3h3.1v3.2h-3.1z"/><path  d="m57.3 66.3h3.1v3.2h-3.1z"/><path  d="m69.4 66.3h3.2v3.2h-3.2z"/><path  d="m78.5 66.3h3.2v3.2h-3.2z"/><path  d="m81.6 66.3h3.1v3.2h-3.1z"/><path  d="m84.6 66.3h3.1v3.2h-3.1z"/><path  d="m87.6 66.3h3.2v3.2h-3.2z"/><path  d="m90.7 66.3h3.1v3.2h-3.1z"/><path  d="m96.8 66.3h3.1v3.2h-3.1z"/><path  d="m99.8 66.3h3.1v3.2h-3.1z"/><path  d="m105.9 66.3h3.1v3.2h-3.1z"/><path  d="m108.9 66.3h3.1v3.2h-3.1z"/><path  d="m111.9 66.3h3.2v3.2h-3.2z"/><path  d="m20.9 69.4h3.1v3.1h-3.1z"/><path  d="m23.9 69.4h3.1v3.1h-3.1z"/><path  d="m36 69.4h3.2v3.1h-3.2z"/><path  d="m39.1 69.4h3.1v3.1h-3.1z"/><path  d="m51.2 69.4h3.1v3.1h-3.1z"/><path  d="m54.3 69.4h3.1v3.1h-3.1z"/><path  d="m63.4 69.4h3.1v3.1h-3.1z"/><path  d="m72.5 69.4h3.1v3.1h-3.1z"/><path  d="m78.5 69.4h3.2v3.1h-3.2z"/><path  d="m87.6 69.4h3.2v3.1h-3.2z"/><path  d="m90.7 69.4h3.1v3.1h-3.1z"/><path  d="m93.7 69.4h3.1v3.1h-3.1z"/><path  d="m96.8 69.4h3.1v3.1h-3.1z"/><path  d="m102.8 69.4h3.1v3.1h-3.1z"/><path  d="m105.9 69.4h3.1v3.1h-3.1z"/><path  d="m118 69.4h3.1v3.1h-3.1z"/><path  d="m26.9 72.4h3.2v3.1h-3.2z"/><path  d="m30 72.4h3.1v3.1h-3.1z"/><path  d="m33 72.4h3.1v3.1h-3.1z"/><path  d="m42.1 72.4h3.1v3.1h-3.1z"/><path  d="m45.2 72.4h3.1v3.1h-3.1z"/><path  d="m57.3 72.4h3.1v3.1h-3.1z"/><path  d="m69.4 72.4h3.2v3.1h-3.2z"/><path  d="m72.5 72.4h3.1v3.1h-3.1z"/><path  d="m75.5 72.4h3.1v3.1h-3.1z"/><path  d="m78.5 72.4h3.2v3.1h-3.2z"/><path  d="m81.6 72.4h3.1v3.1h-3.1z"/><path  d="m90.7 72.4h3.1v3.1h-3.1z"/><path  d="m93.7 72.4h3.1v3.1h-3.1z"/><path  d="m96.8 72.4h3.1v3.1h-3.1z"/><path  d="m99.8 72.4h3.1v3.1h-3.1z"/><path  d="m102.8 72.4h3.1v3.1h-3.1z"/><path  d="m108.9 72.4h3.1v3.1h-3.1z"/><path  d="m111.9 72.4h3.2v3.1h-3.2z"/><path  d="m118 72.4h3.1v3.1h-3.1z"/><path  d="m20.9 75.4h3.1v3.2h-3.1z"/><path  d="m23.9 75.4h3.1v3.2h-3.1z"/><path  d="m26.9 75.4h3.2v3.2h-3.2z"/><path  d="m36 75.4h3.2v3.2h-3.2z"/><path  d="m39.1 75.4h3.1v3.2h-3.1z"/><path  d="m48.2 75.4h3.1v3.2h-3.1z"/><path  d="m57.3 75.4h3.1v3.2h-3.1z"/><path  d="m60.3 75.4h3.2v3.2h-3.2z"/><path  d="m66.4 75.4h3.1v3.2h-3.1z"/><path  d="m69.4 75.4h3.2v3.2h-3.2z"/><path  d="m72.5 75.4h3.1v3.2h-3.1z"/><path  d="m81.6 75.4h3.1v3.2h-3.1z"/><path  d="m87.6 75.4h3.2v3.2h-3.2z"/><path  d="m102.8 75.4h3.1v3.2h-3.1z"/><path  d="m105.9 75.4h3.1v3.2h-3.1z"/><path  d="m111.9 75.4h3.2v3.2h-3.2z"/><path  d="m115 75.4h3.1v3.2h-3.1z"/><path  d="m26.9 78.5h3.2v3.1h-3.2z"/><path  d="m33 78.5h3.1v3.1h-3.1z"/><path  d="m36 78.5h3.2v3.1h-3.2z"/><path  d="m45.2 78.5h3.1v3.1h-3.1z"/><path  d="m51.2 78.5h3.1v3.1h-3.1z"/><path  d="m66.4 78.5h3.1v3.1h-3.1z"/><path  d="m69.4 78.5h3.2v3.1h-3.2z"/><path  d="m72.5 78.5h3.1v3.1h-3.1z"/><path  d="m75.5 78.5h3.1v3.1h-3.1z"/><path  d="m78.5 78.5h3.2v3.1h-3.2z"/><path  d="m90.7 78.5h3.1v3.1h-3.1z"/><path  d="m96.8 78.5h3.1v3.1h-3.1z"/><path  d="m99.8 78.5h3.1v3.1h-3.1z"/><path  d="m102.8 78.5h3.1v3.1h-3.1z"/><path  d="m105.9 78.5h3.1v3.1h-3.1z"/><path  d="m108.9 78.5h3.1v3.1h-3.1z"/><path  d="m111.9 78.5h3.2v3.1h-3.2z"/><path  d="m115 78.5h3.1v3.1h-3.1z"/><path  d="m26.9 81.5h3.2v3.1h-3.2z"/><path  d="m36 81.5h3.2v3.1h-3.2z"/><path  d="m39.1 81.5h3.1v3.1h-3.1z"/><path  d="m54.3 81.5h3.1v3.1h-3.1z"/><path  d="m57.3 81.5h3.1v3.1h-3.1z"/><path  d="m66.4 81.5h3.1v3.1h-3.1z"/><path  d="m69.4 81.5h3.2v3.1h-3.2z"/><path  d="m81.6 81.5h3.1v3.1h-3.1z"/><path  d="m84.6 81.5h3.1v3.1h-3.1z"/><path  d="m87.6 81.5h3.2v3.1h-3.2z"/><path  d="m93.7 81.5h3.1v3.1h-3.1z"/><path  d="m96.8 81.5h3.1v3.1h-3.1z"/><path  d="m102.8 81.5h3.1v3.1h-3.1z"/><path  d="m105.9 81.5h3.1v3.1h-3.1z"/><path  d="m108.9 81.5h3.1v3.1h-3.1z"/><path  d="m115 81.5h3.1v3.1h-3.1z"/><path  d="m20.9 84.5h3.1v3.2h-3.1z"/><path  d="m23.9 84.5h3.1v3.2h-3.1z"/><path  d="m30 84.5h3.1v3.2h-3.1z"/><path  d="m33 84.5h3.1v3.2h-3.1z"/><path  d="m51.2 84.5h3.1v3.2h-3.1z"/><path  d="m60.3 84.5h3.2v3.2h-3.2z"/><path  d="m63.4 84.5h3.1v3.2h-3.1z"/><path  d="m66.4 84.5h3.1v3.2h-3.1z"/><path  d="m75.5 84.5h3.1v3.2h-3.1z"/><path  d="m90.7 84.5h3.1v3.2h-3.1z"/><path  d="m99.8 84.5h3.1v3.2h-3.1z"/><path  d="m108.9 84.5h3.1v3.2h-3.1z"/><path  d="m111.9 84.5h3.2v3.2h-3.2z"/><path  d="m118 84.5h3.1v3.2h-3.1z"/><path  d="m20.9 87.6h3.1v3.1h-3.1z"/><path  d="m36 87.6h3.2v3.1h-3.2z"/><path  d="m39.1 87.6h3.1v3.1h-3.1z"/><path  d="m45.2 87.6h3.1v3.1h-3.1z"/><path  d="m54.3 87.6h3.1v3.1h-3.1z"/><path  d="m57.3 87.6h3.1v3.1h-3.1z"/><path  d="m60.3 87.6h3.2v3.1h-3.2z"/><path  d="m63.4 87.6h3.1v3.1h-3.1z"/><path  d="m66.4 87.6h3.1v3.1h-3.1z"/><path  d="m69.4 87.6h3.2v3.1h-3.2z"/><path  d="m75.5 87.6h3.1v3.1h-3.1z"/><path  d="m81.6 87.6h3.1v3.1h-3.1z"/><path  d="m84.6 87.6h3.1v3.1h-3.1z"/><path  d="m87.6 87.6h3.2v3.1h-3.2z"/><path  d="m96.8 87.6h3.1v3.1h-3.1z"/><path  d="m108.9 87.6h3.1v3.1h-3.1z"/><path  d="m115 87.6h3.1v3.1h-3.1z"/><path  d="m20.9 90.6h3.1v3.1h-3.1z"/><path  d="m30 90.6h3.1v3.1h-3.1z"/><path  d="m42.1 90.6h3.1v3.1h-3.1z"/><path  d="m51.2 90.6h3.1v3.1h-3.1z"/><path  d="m60.3 90.6h3.2v3.1h-3.2z"/><path  d="m63.4 90.6h3.1v3.1h-3.1z"/><path  d="m66.4 90.6h3.1v3.1h-3.1z"/><path  d="m84.6 90.6h3.1v3.1h-3.1z"/><path  d="m87.6 90.6h3.2v3.1h-3.2z"/><path  d="m90.7 90.6h3.1v3.1h-3.1z"/><path  d="m96.8 90.6h3.1v3.1h-3.1z"/><path  d="m99.8 90.6h3.1v3.1h-3.1z"/><path  d="m111.9 90.6h3.2v3.1h-3.2z"/><path  d="m118 90.6h3.1v3.1h-3.1z"/><path  d="m20.9 93.6h3.1v3.2h-3.1z"/><path  d="m30 93.6h3.1v3.2h-3.1z"/><path  d="m33 93.6h3.1v3.2h-3.1z"/><path  d="m39.1 93.6h3.1v3.2h-3.1z"/><path  d="m42.1 93.6h3.1v3.2h-3.1z"/><path  d="m45.2 93.6h3.1v3.2h-3.1z"/><path  d="m51.2 93.6h3.1v3.2h-3.1z"/><path  d="m57.3 93.6h3.1v3.2h-3.1z"/><path  d="m66.4 93.6h3.1v3.2h-3.1z"/><path  d="m69.4 93.6h3.2v3.2h-3.2z"/><path  d="m72.5 93.6h3.1v3.2h-3.1z"/><path  d="m87.6 93.6h3.2v3.2h-3.2z"/><path  d="m90.7 93.6h3.1v3.2h-3.1z"/><path  d="m93.7 93.6h3.1v3.2h-3.1z"/><path  d="m96.8 93.6h3.1v3.2h-3.1z"/><path  d="m99.8 93.6h3.1v3.2h-3.1z"/><path  d="m102.8 93.6h3.1v3.2h-3.1z"/><path  d="m105.9 93.6h3.1v3.2h-3.1z"/><path  d="m115 93.6h3.1v3.2h-3.1z"/><path  d="m118 93.6h3.1v3.2h-3.1z"/><path  d="m45.2 96.7h3.1v3.1h-3.1z"/><path  d="m63.4 96.7h3.1v3.1h-3.1z"/><path  d="m69.4 96.7h3.2v3.1h-3.2z"/><path  d="m75.5 96.7h3.1v3.1h-3.1z"/><path  d="m78.5 96.7h3.2v3.1h-3.2z"/><path  d="m81.6 96.7h3.1v3.1h-3.1z"/><path  d="m84.6 96.7h3.1v3.1h-3.1z"/><path  d="m90.7 96.7h3.1v3.1h-3.1z"/><path  d="m93.7 96.7h3.1v3.1h-3.1z"/><path  d="m105.9 96.7h3.1v3.1h-3.1z"/><path  d="m111.9 96.7h3.2v3.1h-3.2z"/><path  d="m118 96.7h3.1v3.1h-3.1z"/><path  d="m60.3 99.7h3.2v3.1h-3.2z"/><path  d="m66.4 99.7h3.1v3.1h-3.1z"/><path  d="m75.5 99.7h3.1v3.1h-3.1z"/><path  d="m84.6 99.7h3.1v3.1h-3.1z"/><path  d="m90.7 99.7h3.1v3.1h-3.1z"/><path  d="m93.7 99.7h3.1v3.1h-3.1z"/><path  d="m99.8 99.7h3.1v3.1h-3.1z"/><path  d="m105.9 99.7h3.1v3.1h-3.1z"/><path  d="m111.9 99.7h3.2v3.1h-3.2z"/><path  d="m115 99.7h3.1v3.1h-3.1z"/><path  d="m45.2 102.7h3.1v3.1h-3.1z"/><path  d="m48.2 102.7h3.1v3.1h-3.1z"/><path  d="m54.3 102.7h3.1v3.1h-3.1z"/><path  d="m57.3 102.7h3.1v3.1h-3.1z"/><path  d="m60.3 102.7h3.2v3.1h-3.2z"/><path  d="m78.5 102.7h3.2v3.1h-3.2z"/><path  d="m81.6 102.7h3.1v3.1h-3.1z"/><path  d="m84.6 102.7h3.1v3.1h-3.1z"/><path  d="m87.6 102.7h3.2v3.1h-3.2z"/><path  d="m90.7 102.7h3.1v3.1h-3.1z"/><path  d="m93.7 102.7h3.1v3.1h-3.1z"/><path  d="m105.9 102.7h3.1v3.1h-3.1z"/><path  d="m108.9 102.7h3.1v3.1h-3.1z"/><path  d="m111.9 102.7h3.2v3.1h-3.2z"/><path  d="m115 102.7h3.1v3.1h-3.1z"/><path  d="m118 102.7h3.1v3.1h-3.1z"/><path  d="m45.2 105.8h3.1v3.1h-3.1z"/><path  d="m48.2 105.8h3.1v3.1h-3.1z"/><path  d="m51.2 105.8h3.1v3.1h-3.1z"/><path  d="m60.3 105.8h3.2v3.1h-3.2z"/><path  d="m63.4 105.8h3.1v3.1h-3.1z"/><path  d="m66.4 105.8h3.1v3.1h-3.1z"/><path  d="m75.5 105.8h3.1v3.1h-3.1z"/><path  d="m78.5 105.8h3.2v3.1h-3.2z"/><path  d="m84.6 105.8h3.1v3.1h-3.1z"/><path  d="m93.7 105.8h3.1v3.1h-3.1z"/><path  d="m96.8 105.8h3.1v3.1h-3.1z"/><path  d="m99.8 105.8h3.1v3.1h-3.1z"/><path  d="m102.8 105.8h3.1v3.1h-3.1z"/><path  d="m105.9 105.8h3.1v3.1h-3.1z"/><path  d="m108.9 105.8h3.1v3.1h-3.1z"/><path  d="m45.2 108.8h3.1v3.1h-3.1z"/><path  d="m48.2 108.8h3.1v3.1h-3.1z"/><path  d="m57.3 108.8h3.1v3.1h-3.1z"/><path  d="m60.3 108.8h3.2v3.1h-3.2z"/><path  d="m63.4 108.8h3.1v3.1h-3.1z"/><path  d="m66.4 108.8h3.1v3.1h-3.1z"/><path  d="m69.4 108.8h3.2v3.1h-3.2z"/><path  d="m72.5 108.8h3.1v3.1h-3.1z"/><path  d="m81.6 108.8h3.1v3.1h-3.1z"/><path  d="m87.6 108.8h3.2v3.1h-3.2z"/><path  d="m90.7 108.8h3.1v3.1h-3.1z"/><path  d="m96.8 108.8h3.1v3.1h-3.1z"/><path  d="m105.9 108.8h3.1v3.1h-3.1z"/><path  d="m108.9 108.8h3.1v3.1h-3.1z"/><path  d="m118 108.8h3.1v3.1h-3.1z"/><path  d="m45.2 111.8h3.1v3.1h-3.1z"/><path  d="m60.3 111.8h3.2v3.1h-3.2z"/><path  d="m63.4 111.8h3.1v3.1h-3.1z"/><path  d="m78.5 111.8h3.2v3.1h-3.2z"/><path  d="m90.7 111.8h3.1v3.1h-3.1z"/><path  d="m93.7 111.8h3.1v3.1h-3.1z"/><path  d="m96.8 111.8h3.1v3.1h-3.1z"/><path  d="m99.8 111.8h3.1v3.1h-3.1z"/><path  d="m102.8 111.8h3.1v3.1h-3.1z"/><path  d="m108.9 111.8h3.1v3.1h-3.1z"/><path  d="m51.2 114.9h3.1v3.1h-3.1z"/><path  d="m54.3 114.9h3.1v3.1h-3.1z"/><path  d="m69.4 114.9h3.2v3.1h-3.2z"/><path  d="m78.5 114.9h3.2v3.1h-3.2z"/><path  d="m81.6 114.9h3.1v3.1h-3.1z"/><path  d="m84.6 114.9h3.1v3.1h-3.1z"/><path  d="m87.6 114.9h3.2v3.1h-3.2z"/><path  d="m96.8 114.9h3.1v3.1h-3.1z"/><path  d="m105.9 114.9h3.1v3.1h-3.1z"/><path  d="m108.9 114.9h3.1v3.1h-3.1z"/><path  d="m111.9 114.9h3.2v3.1h-3.2z"/><path  d="m45.2 117.9h3.1v3.1h-3.1z"/><path  d="m51.2 117.9h3.1v3.1h-3.1z"/><path  d="m63.4 117.9h3.1v3.1h-3.1z"/><path  d="m72.5 117.9h3.1v3.1h-3.1z"/><path  d="m78.5 117.9h3.2v3.1h-3.2z"/><path  d="m90.7 117.9h3.1v3.1h-3.1z"/><path  d="m93.7 117.9h3.1v3.1h-3.1z"/><path  d="m102.8 117.9h3.1v3.1h-3.1z"/><path  d="m115 117.9h3.1v3.1h-3.1z"/><path fill-rule="evenodd" d="m20.9 20.8h21.2v21.3h-21.2zm3 18.2h15.2v-15.2h-15.2z"/><path fill-rule="evenodd" d="m99.8 20.8h21.2v21.3h-21.2zm3 18.2h15.2v-15.2h-15.2z"/><path fill-rule="evenodd" d="m20.9 99.7h21.2v21.2h-21.2zm3 18.2h15.2v-15.1h-15.2z"/><path  d="m26.9 26.9h9.1v9.1h-9.1z"/><path  d="m105.9 26.9h9.1v9.1h-9.1z"/><path  d="m26.9 105.8h9.1v9.1h-9.1z"/></svg>