<svg version="1.2" xmlns="http://www.w3.org/2000/svg" viewBox="0 0 142 142" width="142" height="142"><style>.a{fill:#fff}</style><path class="a" d="m11.8 11.8h119.4v119.6h-119.4z"/><path fill-rule="evenodd" d="m37.1 3c0 1.6-1.3 2.9-2.9 2.9h-22.4c-3.2 0-5.9 2.7-5.9 5.9v22.2c0 0 0.1 0.1 0.1 0.2 0 1.7-1.3 3-3 3-1.6 0-2.9-1.3-2.9-3h-0.1v-22.4c0-6.5 5.3-11.8 11.8-11.8h22.4c1.6 0 2.9 1.3 2.9 3zm101.8 34.2c-1.6 0-2.9-1.3-2.9-3v-22.4c0-3.2-2.7-5.9-5.9-5.9h-22.1c-0.1 0-0.2 0.1-0.3 0.1-1.6 0-2.9-1.3-2.9-3 0-1.6 1.3-2.9 2.9-2.9v-0.1h22.4c6.5 0 11.8 5.3 11.8 11.8v22.4c0 1.7-1.3 3-3 3zm-34.1 101.9c0-1.7 1.3-3 2.9-3h22.4c3.2 0 5.9-2.7 5.9-5.9v-22.2c0 0-0.1-0.1-0.1-0.2 0-1.6 1.3-2.9 3-2.9 1.6 0 2.9 1.3 2.9 2.9h0.1v22.4c0 6.5-5.3 11.8-11.8 11.8h-22.4c-1.6 0-2.9-1.3-2.9-2.9zm-101.8-34.2c1.6 0 2.9 1.3 2.9 2.9v22.4c0 3.2 2.7 5.9 5.9 5.9h22.1c0.2 0 0.2-0.1 0.3-0.1 1.6 0 2.9 1.3 2.9 3 0 1.6-1.3 3-2.9 3h-22.4c-6.5 0-11.8-5.3-11.8-11.8v-22.4c0-1.6 1.3-2.9 3-2.9z"/><path  d="m39.3 20.9h2.1v2.1h-2.1z"/><path  d="m43.4 20.9h2.1v2.1h-2.1z"/><path  d="m49.5 20.9h2.1v2.1h-2.1z"/><path  d="m53.6 20.9h2.1v2.1h-2.1z"/><path  d="m55.6 20.9h2.1v2.1h-2.1z"/><path  d="m59.7 20.9h2.1v2.1h-2.1z"/><path  d="m67.9 20.9h2.1v2.1h-2.1z"/><path  d="m72 20.9h2.1v2.1h-2.1z"/><path  d="m80.1 20.9h2.1v2.1h-2.1z"/><path  d="m82.2 20.9h2.1v2.1h-2.1z"/><path  d="m84.2 20.9h2.1v2.1h-2.1z"/><path  d="m92.4 20.9h2.1v2.1h-2.1z"/><path  d="m102.6 20.9h2.1v2.1h-2.1z"/><path  d="m45.4 22.9h2.1v2.1h-2.1z"/><path  d="m47.4 22.9h2.1v2.1h-2.1z"/><path  d="m51.5 22.9h2.1v2.1h-2.1z"/><path  d="m53.6 22.9h2.1v2.1h-2.1z"/><path  d="m57.7 22.9h2.1v2.1h-2.1z"/><path  d="m59.7 22.9h2.1v2.1h-2.1z"/><path  d="m63.8 22.9h2.1v2.1h-2.1z"/><path  d="m65.8 22.9h2.1v2.1h-2.1z"/><path  d="m67.9 22.9h2.1v2.1h-2.1z"/><path  d="m74 22.9h2.1v2.1h-2.1z"/><path  d="m76.1 22.9h2.1v2.1h-2.1z"/><path  d="m78.1 22.9h2.1v2.1h-2.1z"/><path  d="m88.3 22.9h2.1v2.1h-2.1z"/><path  d="m90.4 22.9h2.1v2.1h-2.1z"/><path  d="m94.5 22.9h2.1v2.1h-2.1z"/><path  d="m96.5 22.9h2.1v2.1h-2.1z"/><path  d="m98.5 22.9h2.1v2.1h-2.1z"/><path  d="m100.6 22.9h2.1v2.1h-2.1z"/><path  d="m102.6 22.9h2.1v2.1h-2.1z"/><path  d="m37.2 25h2.1v2.1h-2.1z"/><path  d="m43.4 25h2.1v2.1h-2.1z"/><path  d="m51.5 25h2.1v2.1h-2.1z"/><path  d="m53.6 25h2.1v2.1h-2.1z"/><path  d="m55.6 25h2.1v2.1h-2.1z"/><path  d="m63.8 25h2.1v2.1h-2.1z"/><path  d="m69.9 25h2.1v2.1h-2.1z"/><path  d="m72 25h2.1v2.1h-2.1z"/><path  d="m74 25h2.1v2.1h-2.1z"/><path  d="m78.1 25h2.1v2.1h-2.1z"/><path  d="m80.1 25h2.1v2.1h-2.1z"/><path  d="m86.3 25h2.1v2.1h-2.1z"/><path  d="m100.6 25h2.1v2.1h-2.1z"/><path  d="m102.6 25h2.1v2.1h-2.1z"/><path  d="m37.2 27h2.1v2.1h-2.1z"/><path  d="m47.4 27h2.1v2.1h-2.1z"/><path  d="m49.5 27h2.1v2.1h-2.1z"/><path  d="m51.5 27h2.1v2.1h-2.1z"/><path  d="m53.6 27h2.1v2.1h-2.1z"/><path  d="m67.9 27h2.1v2.1h-2.1z"/><path  d="m72 27h2.1v2.1h-2.1z"/><path  d="m74 27h2.1v2.1h-2.1z"/><path  d="m84.2 27h2.1v2.1h-2.1z"/><path  d="m88.3 27h2.1v2.1h-2.1z"/><path  d="m90.4 27h2.1v2.1h-2.1z"/><path  d="m92.4 27h2.1v2.1h-2.1z"/><path  d="m94.5 27h2.1v2.1h-2.1z"/><path  d="m96.5 27h2.1v2.1h-2.1z"/><path  d="m100.6 27h2.1v2.1h-2.1z"/><path  d="m37.2 29.1h2.1v2.1h-2.1z"/><path  d="m45.4 29.1h2.1v2.1h-2.1z"/><path  d="m47.4 29.1h2.1v2.1h-2.1z"/><path  d="m53.6 29.1h2.1v2.1h-2.1z"/><path  d="m59.7 29.1h2.1v2.1h-2.1z"/><path  d="m61.7 29.1h2.2v2.1h-2.2z"/><path  d="m63.8 29.1h2.1v2.1h-2.1z"/><path  d="m65.8 29.1h2.1v2.1h-2.1z"/><path  d="m67.9 29.1h2.1v2.1h-2.1z"/><path  d="m69.9 29.1h2.1v2.1h-2.1z"/><path  d="m72 29.1h2.1v2.1h-2.1z"/><path  d="m74 29.1h2.1v2.1h-2.1z"/><path  d="m78.1 29.1h2.1v2.1h-2.1z"/><path  d="m82.2 29.1h2.1v2.1h-2.1z"/><path  d="m86.3 29.1h2.1v2.1h-2.1z"/><path  d="m88.3 29.1h2.1v2.1h-2.1z"/><path  d="m92.4 29.1h2.1v2.1h-2.1z"/><path  d="m96.5 29.1h2.1v2.1h-2.1z"/><path  d="m37.2 31.1h2.1v2.1h-2.1z"/><path  d="m39.3 31.1h2.1v2.1h-2.1z"/><path  d="m41.3 31.1h2.1v2.1h-2.1z"/><path  d="m57.7 31.1h2.1v2.1h-2.1z"/><path  d="m61.7 31.1h2.2v2.1h-2.2z"/><path  d="m63.8 31.1h2.1v2.1h-2.1z"/><path  d="m65.8 31.1h2.1v2.1h-2.1z"/><path  d="m74 31.1h2.1v2.1h-2.1z"/><path  d="m76.1 31.1h2.1v2.1h-2.1z"/><path  d="m88.3 31.1h2.1v2.1h-2.1z"/><path  d="m90.4 31.1h2.1v2.1h-2.1z"/><path  d="m92.4 31.1h2.1v2.1h-2.1z"/><path  d="m98.5 31.1h2.1v2.1h-2.1z"/><path  d="m37.2 33.2h2.1v2.1h-2.1z"/><path  d="m41.3 33.2h2.1v2.1h-2.1z"/><path  d="m45.4 33.2h2.1v2.1h-2.1z"/><path  d="m49.5 33.2h2.1v2.1h-2.1z"/><path  d="m53.6 33.2h2.1v2.1h-2.1z"/><path  d="m57.7 33.2h2.1v2.1h-2.1z"/><path  d="m61.7 33.2h2.2v2.1h-2.2z"/><path  d="m65.8 33.2h2.1v2.1h-2.1z"/><path  d="m69.9 33.2h2.1v2.1h-2.1z"/><path  d="m74 33.2h2.1v2.1h-2.1z"/><path  d="m78.1 33.2h2.1v2.1h-2.1z"/><path  d="m82.2 33.2h2.1v2.1h-2.1z"/><path  d="m86.3 33.2h2.1v2.1h-2.1z"/><path  d="m90.4 33.2h2.1v2.1h-2.1z"/><path  d="m94.5 33.2h2.1v2.1h-2.1z"/><path  d="m98.5 33.2h2.1v2.1h-2.1z"/><path  d="m102.6 33.2h2.1v2.1h-2.1z"/><path  d="m37.2 35.2h2.1v2.1h-2.1z"/><path  d="m41.3 35.2h2.1v2.1h-2.1z"/><path  d="m43.4 35.2h2.1v2.1h-2.1z"/><path  d="m45.4 35.2h2.1v2.1h-2.1z"/><path  d="m53.6 35.2h2.1v2.1h-2.1z"/><path  d="m59.7 35.2h2.1v2.1h-2.1z"/><path  d="m61.7 35.2h2.2v2.1h-2.2z"/><path  d="m65.8 35.2h2.1v2.1h-2.1z"/><path  d="m74 35.2h2.1v2.1h-2.1z"/><path  d="m76.1 35.2h2.1v2.1h-2.1z"/><path  d="m78.1 35.2h2.1v2.1h-2.1z"/><path  d="m82.2 35.2h2.1v2.1h-2.1z"/><path  d="m86.3 35.2h2.1v2.1h-2.1z"/><path  d="m88.3 35.2h2.1v2.1h-2.1z"/><path  d="m90.4 35.2h2.1v2.1h-2.1z"/><path  d="m96.5 35.2h2.1v2.1h-2.1z"/><path  d="m98.5 35.2h2.1v2.1h-2.1z"/><path  d="m100.6 35.2h2.1v2.1h-2.1z"/><path  d="m20.9 37.2h2.1v2.2h-2.1z"/><path  d="m25 37.2h2.1v2.2h-2.1z"/><path  d="m27 37.2h2.1v2.2h-2.1z"/><path  d="m29 37.2h2.1v2.2h-2.1z"/><path  d="m31.1 37.2h2.1v2.2h-2.1z"/><path  d="m33.1 37.2h2.1v2.2h-2.1z"/><path  d="m45.4 37.2h2.1v2.2h-2.1z"/><path  d="m49.5 37.2h2.1v2.2h-2.1z"/><path  d="m51.5 37.2h2.1v2.2h-2.1z"/><path  d="m53.6 37.2h2.1v2.2h-2.1z"/><path  d="m55.6 37.2h2.1v2.2h-2.1z"/><path  d="m57.7 37.2h2.1v2.2h-2.1z"/><path  d="m61.7 37.2h2.2v2.2h-2.2z"/><path  d="m63.8 37.2h2.1v2.2h-2.1z"/><path  d="m65.8 37.2h2.1v2.2h-2.1z"/><path  d="m67.9 37.2h2.1v2.2h-2.1z"/><path  d="m69.9 37.2h2.1v2.2h-2.1z"/><path  d="m72 37.2h2.1v2.2h-2.1z"/><path  d="m74 37.2h2.1v2.2h-2.1z"/><path  d="m76.1 37.2h2.1v2.2h-2.1z"/><path  d="m80.1 37.2h2.1v2.2h-2.1z"/><path  d="m82.2 37.2h2.1v2.2h-2.1z"/><path  d="m84.2 37.2h2.1v2.2h-2.1z"/><path  d="m90.4 37.2h2.1v2.2h-2.1z"/><path  d="m92.4 37.2h2.1v2.2h-2.1z"/><path  d="m94.5 37.2h2.1v2.2h-2.1z"/><path  d="m98.5 37.2h2.1v2.2h-2.1z"/><path  d="m102.6 37.2h2.1v2.2h-2.1z"/><path  d="m106.7 37.2h2.1v2.2h-2.1z"/><path  d="m108.8 37.2h2.1v2.2h-2.1z"/><path  d="m110.8 37.2h2.1v2.2h-2.1z"/><path  d="m112.8 37.2h2.2v2.2h-2.2z"/><path  d="m114.9 37.2h2.1v2.2h-2.1z"/><path  d="m20.9 39.3h2.1v2.1h-2.1z"/><path  d="m31.1 39.3h2.1v2.1h-2.1z"/><path  d="m37.2 39.3h2.1v2.1h-2.1z"/><path  d="m39.3 39.3h2.1v2.1h-2.1z"/><path  d="m45.4 39.3h2.1v2.1h-2.1z"/><path  d="m49.5 39.3h2.1v2.1h-2.1z"/><path  d="m53.6 39.3h2.1v2.1h-2.1z"/><path  d="m59.7 39.3h2.1v2.1h-2.1z"/><path  d="m63.8 39.3h2.1v2.1h-2.1z"/><path  d="m72 39.3h2.1v2.1h-2.1z"/><path  d="m78.1 39.3h2.1v2.1h-2.1z"/><path  d="m80.1 39.3h2.1v2.1h-2.1z"/><path  d="m82.2 39.3h2.1v2.1h-2.1z"/><path  d="m86.3 39.3h2.1v2.1h-2.1z"/><path  d="m94.5 39.3h2.1v2.1h-2.1z"/><path  d="m96.5 39.3h2.1v2.1h-2.1z"/><path  d="m104.7 39.3h2.1v2.1h-2.1z"/><path  d="m106.7 39.3h2.1v2.1h-2.1z"/><path  d="m108.8 39.3h2.1v2.1h-2.1z"/><path  d="m112.8 39.3h2.2v2.1h-2.2z"/><path  d="m114.9 39.3h2.1v2.1h-2.1z"/><path  d="m25 41.3h2.1v2.1h-2.1z"/><path  d="m33.1 41.3h2.1v2.1h-2.1z"/><path  d="m35.2 41.3h2.1v2.1h-2.1z"/><path  d="m47.4 41.3h2.1v2.1h-2.1z"/><path  d="m49.5 41.3h2.1v2.1h-2.1z"/><path  d="m59.7 41.3h2.1v2.1h-2.1z"/><path  d="m63.8 41.3h2.1v2.1h-2.1z"/><path  d="m67.9 41.3h2.1v2.1h-2.1z"/><path  d="m74 41.3h2.1v2.1h-2.1z"/><path  d="m76.1 41.3h2.1v2.1h-2.1z"/><path  d="m78.1 41.3h2.1v2.1h-2.1z"/><path  d="m90.4 41.3h2.1v2.1h-2.1z"/><path  d="m92.4 41.3h2.1v2.1h-2.1z"/><path  d="m94.5 41.3h2.1v2.1h-2.1z"/><path  d="m98.5 41.3h2.1v2.1h-2.1z"/><path  d="m104.7 41.3h2.1v2.1h-2.1z"/><path  d="m108.8 41.3h2.1v2.1h-2.1z"/><path  d="m110.8 41.3h2.1v2.1h-2.1z"/><path  d="m116.9 41.3h2.1v2.1h-2.1z"/><path  d="m119 41.3h2.1v2.1h-2.1z"/><path  d="m20.9 43.4h2.1v2.1h-2.1z"/><path  d="m25 43.4h2.1v2.1h-2.1z"/><path  d="m27 43.4h2.1v2.1h-2.1z"/><path  d="m35.2 43.4h2.1v2.1h-2.1z"/><path  d="m41.3 43.4h2.1v2.1h-2.1z"/><path  d="m43.4 43.4h2.1v2.1h-2.1z"/><path  d="m45.4 43.4h2.1v2.1h-2.1z"/><path  d="m47.4 43.4h2.1v2.1h-2.1z"/><path  d="m51.5 43.4h2.1v2.1h-2.1z"/><path  d="m53.6 43.4h2.1v2.1h-2.1z"/><path  d="m67.9 43.4h2.1v2.1h-2.1z"/><path  d="m72 43.4h2.1v2.1h-2.1z"/><path  d="m74 43.4h2.1v2.1h-2.1z"/><path  d="m76.1 43.4h2.1v2.1h-2.1z"/><path  d="m78.1 43.4h2.1v2.1h-2.1z"/><path  d="m82.2 43.4h2.1v2.1h-2.1z"/><path  d="m86.3 43.4h2.1v2.1h-2.1z"/><path  d="m92.4 43.4h2.1v2.1h-2.1z"/><path  d="m96.5 43.4h2.1v2.1h-2.1z"/><path  d="m102.6 43.4h2.1v2.1h-2.1z"/><path  d="m110.8 43.4h2.1v2.1h-2.1z"/><path  d="m20.9 45.4h2.1v2.1h-2.1z"/><path  d="m27 45.4h2.1v2.1h-2.1z"/><path  d="m29 45.4h2.1v2.1h-2.1z"/><path  d="m31.1 45.4h2.1v2.1h-2.1z"/><path  d="m33.1 45.4h2.1v2.1h-2.1z"/><path  d="m35.2 45.4h2.1v2.1h-2.1z"/><path  d="m37.2 45.4h2.1v2.1h-2.1z"/><path  d="m53.6 45.4h2.1v2.1h-2.1z"/><path  d="m55.6 45.4h2.1v2.1h-2.1z"/><path  d="m59.7 45.4h2.1v2.1h-2.1z"/><path  d="m63.8 45.4h2.1v2.1h-2.1z"/><path  d="m65.8 45.4h2.1v2.1h-2.1z"/><path  d="m67.9 45.4h2.1v2.1h-2.1z"/><path  d="m69.9 45.4h2.1v2.1h-2.1z"/><path  d="m72 45.4h2.1v2.1h-2.1z"/><path  d="m76.1 45.4h2.1v2.1h-2.1z"/><path  d="m80.1 45.4h2.1v2.1h-2.1z"/><path  d="m82.2 45.4h2.1v2.1h-2.1z"/><path  d="m84.2 45.4h2.1v2.1h-2.1z"/><path  d="m90.4 45.4h2.1v2.1h-2.1z"/><path  d="m92.4 45.4h2.1v2.1h-2.1z"/><path  d="m94.5 45.4h2.1v2.1h-2.1z"/><path  d="m100.6 45.4h2.1v2.1h-2.1z"/><path  d="m102.6 45.4h2.1v2.1h-2.1z"/><path  d="m108.8 45.4h2.1v2.1h-2.1z"/><path  d="m114.9 45.4h2.1v2.1h-2.1z"/><path  d="m116.9 45.4h2.1v2.1h-2.1z"/><path  d="m22.9 47.5h2.1v2.1h-2.1z"/><path  d="m27 47.5h2.1v2.1h-2.1z"/><path  d="m29 47.5h2.1v2.1h-2.1z"/><path  d="m31.1 47.5h2.1v2.1h-2.1z"/><path  d="m39.3 47.5h2.1v2.1h-2.1z"/><path  d="m41.3 47.5h2.1v2.1h-2.1z"/><path  d="m43.4 47.5h2.1v2.1h-2.1z"/><path  d="m45.4 47.5h2.1v2.1h-2.1z"/><path  d="m47.4 47.5h2.1v2.1h-2.1z"/><path  d="m49.5 47.5h2.1v2.1h-2.1z"/><path  d="m51.5 47.5h2.1v2.1h-2.1z"/><path  d="m55.6 47.5h2.1v2.1h-2.1z"/><path  d="m57.7 47.5h2.1v2.1h-2.1z"/><path  d="m63.8 47.5h2.1v2.1h-2.1z"/><path  d="m67.9 47.5h2.1v2.1h-2.1z"/><path  d="m69.9 47.5h2.1v2.1h-2.1z"/><path  d="m72 47.5h2.1v2.1h-2.1z"/><path  d="m78.1 47.5h2.1v2.1h-2.1z"/><path  d="m80.1 47.5h2.1v2.1h-2.1z"/><path  d="m82.2 47.5h2.1v2.1h-2.1z"/><path  d="m84.2 47.5h2.1v2.1h-2.1z"/><path  d="m92.4 47.5h2.1v2.1h-2.1z"/><path  d="m96.5 47.5h2.1v2.1h-2.1z"/><path  d="m106.7 47.5h2.1v2.1h-2.1z"/><path  d="m110.8 47.5h2.1v2.1h-2.1z"/><path  d="m112.8 47.5h2.2v2.1h-2.2z"/><path  d="m116.9 47.5h2.1v2.1h-2.1z"/><path  d="m20.9 49.5h2.1v2.1h-2.1z"/><path  d="m22.9 49.5h2.1v2.1h-2.1z"/><path  d="m25 49.5h2.1v2.1h-2.1z"/><path  d="m29 49.5h2.1v2.1h-2.1z"/><path  d="m33.1 49.5h2.1v2.1h-2.1z"/><path  d="m39.3 49.5h2.1v2.1h-2.1z"/><path  d="m43.4 49.5h2.1v2.1h-2.1z"/><path  d="m47.4 49.5h2.1v2.1h-2.1z"/><path  d="m49.5 49.5h2.1v2.1h-2.1z"/><path  d="m51.5 49.5h2.1v2.1h-2.1z"/><path  d="m55.6 49.5h2.1v2.1h-2.1z"/><path  d="m59.7 49.5h2.1v2.1h-2.1z"/><path  d="m67.9 49.5h2.1v2.1h-2.1z"/><path  d="m74 49.5h2.1v2.1h-2.1z"/><path  d="m76.1 49.5h2.1v2.1h-2.1z"/><path  d="m80.1 49.5h2.1v2.1h-2.1z"/><path  d="m84.2 49.5h2.1v2.1h-2.1z"/><path  d="m88.3 49.5h2.1v2.1h-2.1z"/><path  d="m90.4 49.5h2.1v2.1h-2.1z"/><path  d="m92.4 49.5h2.1v2.1h-2.1z"/><path  d="m98.5 49.5h2.1v2.1h-2.1z"/><path  d="m108.8 49.5h2.1v2.1h-2.1z"/><path  d="m110.8 49.5h2.1v2.1h-2.1z"/><path  d="m116.9 49.5h2.1v2.1h-2.1z"/><path  d="m119 49.5h2.1v2.1h-2.1z"/><path  d="m20.9 51.6h2.1v2.1h-2.1z"/><path  d="m22.9 51.6h2.1v2.1h-2.1z"/><path  d="m29 51.6h2.1v2.1h-2.1z"/><path  d="m37.2 51.6h2.1v2.1h-2.1z"/><path  d="m41.3 51.6h2.1v2.1h-2.1z"/><path  d="m43.4 51.6h2.1v2.1h-2.1z"/><path  d="m49.5 51.6h2.1v2.1h-2.1z"/><path  d="m51.5 51.6h2.1v2.1h-2.1z"/><path  d="m53.6 51.6h2.1v2.1h-2.1z"/><path  d="m63.8 51.6h2.1v2.1h-2.1z"/><path  d="m74 51.6h2.1v2.1h-2.1z"/><path  d="m78.1 51.6h2.1v2.1h-2.1z"/><path  d="m80.1 51.6h2.1v2.1h-2.1z"/><path  d="m82.2 51.6h2.1v2.1h-2.1z"/><path  d="m86.3 51.6h2.1v2.1h-2.1z"/><path  d="m88.3 51.6h2.1v2.1h-2.1z"/><path  d="m90.4 51.6h2.1v2.1h-2.1z"/><path  d="m92.4 51.6h2.1v2.1h-2.1z"/><path  d="m102.6 51.6h2.1v2.1h-2.1z"/><path  d="m108.8 51.6h2.1v2.1h-2.1z"/><path  d="m110.8 51.6h2.1v2.1h-2.1z"/><path  d="m119 51.6h2.1v2.1h-2.1z"/><path  d="m20.9 53.6h2.1v2.1h-2.1z"/><path  d="m22.9 53.6h2.1v2.1h-2.1z"/><path  d="m25 53.6h2.1v2.1h-2.1z"/><path  d="m31.1 53.6h2.1v2.1h-2.1z"/><path  d="m33.1 53.6h2.1v2.1h-2.1z"/><path  d="m35.2 53.6h2.1v2.1h-2.1z"/><path  d="m37.2 53.6h2.1v2.1h-2.1z"/><path  d="m39.3 53.6h2.1v2.1h-2.1z"/><path  d="m41.3 53.6h2.1v2.1h-2.1z"/><path  d="m43.4 53.6h2.1v2.1h-2.1z"/><path  d="m45.4 53.6h2.1v2.1h-2.1z"/><path  d="m47.4 53.6h2.1v2.1h-2.1z"/><path  d="m55.6 53.6h2.1v2.1h-2.1z"/><path  d="m61.7 53.6h2.2v2.1h-2.2z"/><path  d="m67.9 53.6h2.1v2.1h-2.1z"/><path  d="m69.9 53.6h2.1v2.1h-2.1z"/><path  d="m72 53.6h2.1v2.1h-2.1z"/><path  d="m80.1 53.6h2.1v2.1h-2.1z"/><path  d="m84.2 53.6h2.1v2.1h-2.1z"/><path  d="m90.4 53.6h2.1v2.1h-2.1z"/><path  d="m92.4 53.6h2.1v2.1h-2.1z"/><path  d="m94.5 53.6h2.1v2.1h-2.1z"/><path  d="m98.5 53.6h2.1v2.1h-2.1z"/><path  d="m100.6 53.6h2.1v2.1h-2.1z"/><path  d="m102.6 53.6h2.1v2.1h-2.1z"/><path  d="m104.7 53.6h2.1v2.1h-2.1z"/><path  d="m106.7 53.6h2.1v2.1h-2.1z"/><path  d="m108.8 53.6h2.1v2.1h-2.1z"/><path  d="m112.8 53.6h2.2v2.1h-2.2z"/><path  d="m114.9 53.6h2.1v2.1h-2.1z"/><path  d="m20.9 55.7h2.1v2.1h-2.1z"/><path  d="m25 55.7h2.1v2.1h-2.1z"/><path  d="m27 55.7h2.1v2.1h-2.1z"/><path  d="m31.1 55.7h2.1v2.1h-2.1z"/><path  d="m41.3 55.7h2.1v2.1h-2.1z"/><path  d="m47.4 55.7h2.1v2.1h-2.1z"/><path  d="m51.5 55.7h2.1v2.1h-2.1z"/><path  d="m59.7 55.7h2.1v2.1h-2.1z"/><path  d="m65.8 55.7h2.1v2.1h-2.1z"/><path  d="m67.9 55.7h2.1v2.1h-2.1z"/><path  d="m69.9 55.7h2.1v2.1h-2.1z"/><path  d="m72 55.7h2.1v2.1h-2.1z"/><path  d="m80.1 55.7h2.1v2.1h-2.1z"/><path  d="m82.2 55.7h2.1v2.1h-2.1z"/><path  d="m84.2 55.7h2.1v2.1h-2.1z"/><path  d="m92.4 55.7h2.1v2.1h-2.1z"/><path  d="m94.5 55.7h2.1v2.1h-2.1z"/><path  d="m96.5 55.7h2.1v2.1h-2.1z"/><path  d="m106.7 55.7h2.1v2.1h-2.1z"/><path  d="m108.8 55.7h2.1v2.1h-2.1z"/><path  d="m31.1 57.7h2.1v2.1h-2.1z"/><path  d="m33.1 57.7h2.1v2.1h-2.1z"/><path  d="m37.2 57.7h2.1v2.1h-2.1z"/><path  d="m41.3 57.7h2.1v2.1h-2.1z"/><path  d="m43.4 57.7h2.1v2.1h-2.1z"/><path  d="m47.4 57.7h2.1v2.1h-2.1z"/><path  d="m51.5 57.7h2.1v2.1h-2.1z"/><path  d="m61.7 57.7h2.2v2.1h-2.2z"/><path  d="m63.8 57.7h2.1v2.1h-2.1z"/><path  d="m65.8 57.7h2.1v2.1h-2.1z"/><path  d="m74 57.7h2.1v2.1h-2.1z"/><path  d="m76.1 57.7h2.1v2.1h-2.1z"/><path  d="m78.1 57.7h2.1v2.1h-2.1z"/><path  d="m80.1 57.7h2.1v2.1h-2.1z"/><path  d="m84.2 57.7h2.1v2.1h-2.1z"/><path  d="m86.3 57.7h2.1v2.1h-2.1z"/><path  d="m88.3 57.7h2.1v2.1h-2.1z"/><path  d="m90.4 57.7h2.1v2.1h-2.1z"/><path  d="m98.5 57.7h2.1v2.1h-2.1z"/><path  d="m110.8 57.7h2.1v2.1h-2.1z"/><path  d="m112.8 57.7h2.2v2.1h-2.2z"/><path  d="m116.9 57.7h2.1v2.1h-2.1z"/><path  d="m119 57.7h2.1v2.1h-2.1z"/><path  d="m22.9 59.8h2.1v2.1h-2.1z"/><path  d="m27 59.8h2.1v2.1h-2.1z"/><path  d="m29 59.8h2.1v2.1h-2.1z"/><path  d="m31.1 59.8h2.1v2.1h-2.1z"/><path  d="m35.2 59.8h2.1v2.1h-2.1z"/><path  d="m51.5 59.8h2.1v2.1h-2.1z"/><path  d="m53.6 59.8h2.1v2.1h-2.1z"/><path  d="m57.7 59.8h2.1v2.1h-2.1z"/><path  d="m74 59.8h2.1v2.1h-2.1z"/><path  d="m78.1 59.8h2.1v2.1h-2.1z"/><path  d="m80.1 59.8h2.1v2.1h-2.1z"/><path  d="m84.2 59.8h2.1v2.1h-2.1z"/><path  d="m86.3 59.8h2.1v2.1h-2.1z"/><path  d="m90.4 59.8h2.1v2.1h-2.1z"/><path  d="m96.5 59.8h2.1v2.1h-2.1z"/><path  d="m98.5 59.8h2.1v2.1h-2.1z"/><path  d="m100.6 59.8h2.1v2.1h-2.1z"/><path  d="m104.7 59.8h2.1v2.1h-2.1z"/><path  d="m108.8 59.8h2.1v2.1h-2.1z"/><path  d="m110.8 59.8h2.1v2.1h-2.1z"/><path  d="m119 59.8h2.1v2.1h-2.1z"/><path  d="m33.1 61.8h2.1v2.1h-2.1z"/><path  d="m37.2 61.8h2.1v2.1h-2.1z"/><path  d="m49.5 61.8h2.1v2.1h-2.1z"/><path  d="m51.5 61.8h2.1v2.1h-2.1z"/><path  d="m53.6 61.8h2.1v2.1h-2.1z"/><path  d="m55.6 61.8h2.1v2.1h-2.1z"/><path  d="m57.7 61.8h2.1v2.1h-2.1z"/><path  d="m61.7 61.8h2.2v2.1h-2.2z"/><path  d="m63.8 61.8h2.1v2.1h-2.1z"/><path  d="m65.8 61.8h2.1v2.1h-2.1z"/><path  d="m69.9 61.8h2.1v2.1h-2.1z"/><path  d="m72 61.8h2.1v2.1h-2.1z"/><path  d="m80.1 61.8h2.1v2.1h-2.1z"/><path  d="m84.2 61.8h2.1v2.1h-2.1z"/><path  d="m88.3 61.8h2.1v2.1h-2.1z"/><path  d="m90.4 61.8h2.1v2.1h-2.1z"/><path  d="m92.4 61.8h2.1v2.1h-2.1z"/><path  d="m94.5 61.8h2.1v2.1h-2.1z"/><path  d="m98.5 61.8h2.1v2.1h-2.1z"/><path  d="m100.6 61.8h2.1v2.1h-2.1z"/><path  d="m102.6 61.8h2.1v2.1h-2.1z"/><path  d="m104.7 61.8h2.1v2.1h-2.1z"/><path  d="m114.9 61.8h2.1v2.1h-2.1z"/><path  d="m116.9 61.8h2.1v2.1h-2.1z"/><path  d="m119 61.8h2.1v2.1h-2.1z"/><path  d="m20.9 63.8h2.1v2.2h-2.1z"/><path  d="m25 63.8h2.1v2.2h-2.1z"/><path  d="m27 63.8h2.1v2.2h-2.1z"/><path  d="m29 63.8h2.1v2.2h-2.1z"/><path  d="m31.1 63.8h2.1v2.2h-2.1z"/><path  d="m39.3 63.8h2.1v2.2h-2.1z"/><path  d="m41.3 63.8h2.1v2.2h-2.1z"/><path  d="m49.5 63.8h2.1v2.2h-2.1z"/><path  d="m51.5 63.8h2.1v2.2h-2.1z"/><path  d="m53.6 63.8h2.1v2.2h-2.1z"/><path  d="m55.6 63.8h2.1v2.2h-2.1z"/><path  d="m59.7 63.8h2.1v2.2h-2.1z"/><path  d="m65.8 63.8h2.1v2.2h-2.1z"/><path  d="m69.9 63.8h2.1v2.2h-2.1z"/><path  d="m76.1 63.8h2.1v2.2h-2.1z"/><path  d="m80.1 63.8h2.1v2.2h-2.1z"/><path  d="m82.2 63.8h2.1v2.2h-2.1z"/><path  d="m84.2 63.8h2.1v2.2h-2.1z"/><path  d="m86.3 63.8h2.1v2.2h-2.1z"/><path  d="m92.4 63.8h2.1v2.2h-2.1z"/><path  d="m94.5 63.8h2.1v2.2h-2.1z"/><path  d="m96.5 63.8h2.1v2.2h-2.1z"/><path  d="m104.7 63.8h2.1v2.2h-2.1z"/><path  d="m106.7 63.8h2.1v2.2h-2.1z"/><path  d="m108.8 63.8h2.1v2.2h-2.1z"/><path  d="m110.8 63.8h2.1v2.2h-2.1z"/><path  d="m112.8 63.8h2.2v2.2h-2.2z"/><path  d="m20.9 65.9h2.1v2.1h-2.1z"/><path  d="m27 65.9h2.1v2.1h-2.1z"/><path  d="m29 65.9h2.1v2.1h-2.1z"/><path  d="m31.1 65.9h2.1v2.1h-2.1z"/><path  d="m33.1 65.9h2.1v2.1h-2.1z"/><path  d="m35.2 65.9h2.1v2.1h-2.1z"/><path  d="m37.2 65.9h2.1v2.1h-2.1z"/><path  d="m39.3 65.9h2.1v2.1h-2.1z"/><path  d="m49.5 65.9h2.1v2.1h-2.1z"/><path  d="m57.7 65.9h2.1v2.1h-2.1z"/><path  d="m59.7 65.9h2.1v2.1h-2.1z"/><path  d="m63.8 65.9h2.1v2.1h-2.1z"/><path  d="m65.8 65.9h2.1v2.1h-2.1z"/><path  d="m67.9 65.9h2.1v2.1h-2.1z"/><path  d="m69.9 65.9h2.1v2.1h-2.1z"/><path  d="m72 65.9h2.1v2.1h-2.1z"/><path  d="m74 65.9h2.1v2.1h-2.1z"/><path  d="m86.3 65.9h2.1v2.1h-2.1z"/><path  d="m90.4 65.9h2.1v2.1h-2.1z"/><path  d="m92.4 65.9h2.1v2.1h-2.1z"/><path  d="m98.5 65.9h2.1v2.1h-2.1z"/><path  d="m100.6 65.9h2.1v2.1h-2.1z"/><path  d="m102.6 65.9h2.1v2.1h-2.1z"/><path  d="m104.7 65.9h2.1v2.1h-2.1z"/><path  d="m106.7 65.9h2.1v2.1h-2.1z"/><path  d="m108.8 65.9h2.1v2.1h-2.1z"/><path  d="m110.8 65.9h2.1v2.1h-2.1z"/><path  d="m116.9 65.9h2.1v2.1h-2.1z"/><path  d="m119 65.9h2.1v2.1h-2.1z"/><path  d="m20.9 67.9h2.1v2.1h-2.1z"/><path  d="m22.9 67.9h2.1v2.1h-2.1z"/><path  d="m25 67.9h2.1v2.1h-2.1z"/><path  d="m27 67.9h2.1v2.1h-2.1z"/><path  d="m29 67.9h2.1v2.1h-2.1z"/><path  d="m37.2 67.9h2.1v2.1h-2.1z"/><path  d="m39.3 67.9h2.1v2.1h-2.1z"/><path  d="m41.3 67.9h2.1v2.1h-2.1z"/><path  d="m43.4 67.9h2.1v2.1h-2.1z"/><path  d="m47.4 67.9h2.1v2.1h-2.1z"/><path  d="m51.5 67.9h2.1v2.1h-2.1z"/><path  d="m53.6 67.9h2.1v2.1h-2.1z"/><path  d="m55.6 67.9h2.1v2.1h-2.1z"/><path  d="m59.7 67.9h2.1v2.1h-2.1z"/><path  d="m61.7 67.9h2.2v2.1h-2.2z"/><path  d="m65.8 67.9h2.1v2.1h-2.1z"/><path  d="m74 67.9h2.1v2.1h-2.1z"/><path  d="m76.1 67.9h2.1v2.1h-2.1z"/><path  d="m78.1 67.9h2.1v2.1h-2.1z"/><path  d="m84.2 67.9h2.1v2.1h-2.1z"/><path  d="m86.3 67.9h2.1v2.1h-2.1z"/><path  d="m88.3 67.9h2.1v2.1h-2.1z"/><path  d="m98.5 67.9h2.1v2.1h-2.1z"/><path  d="m102.6 67.9h2.1v2.1h-2.1z"/><path  d="m110.8 67.9h2.1v2.1h-2.1z"/><path  d="m20.9 70h2.1v2.1h-2.1z"/><path  d="m22.9 70h2.1v2.1h-2.1z"/><path  d="m27 70h2.1v2.1h-2.1z"/><path  d="m29 70h2.1v2.1h-2.1z"/><path  d="m33.1 70h2.1v2.1h-2.1z"/><path  d="m37.2 70h2.1v2.1h-2.1z"/><path  d="m39.3 70h2.1v2.1h-2.1z"/><path  d="m41.3 70h2.1v2.1h-2.1z"/><path  d="m43.4 70h2.1v2.1h-2.1z"/><path  d="m45.4 70h2.1v2.1h-2.1z"/><path  d="m49.5 70h2.1v2.1h-2.1z"/><path  d="m51.5 70h2.1v2.1h-2.1z"/><path  d="m61.7 70h2.2v2.1h-2.2z"/><path  d="m63.8 70h2.1v2.1h-2.1z"/><path  d="m65.8 70h2.1v2.1h-2.1z"/><path  d="m69.9 70h2.1v2.1h-2.1z"/><path  d="m74 70h2.1v2.1h-2.1z"/><path  d="m82.2 70h2.1v2.1h-2.1z"/><path  d="m84.2 70h2.1v2.1h-2.1z"/><path  d="m88.3 70h2.1v2.1h-2.1z"/><path  d="m90.4 70h2.1v2.1h-2.1z"/><path  d="m92.4 70h2.1v2.1h-2.1z"/><path  d="m94.5 70h2.1v2.1h-2.1z"/><path  d="m96.5 70h2.1v2.1h-2.1z"/><path  d="m98.5 70h2.1v2.1h-2.1z"/><path  d="m100.6 70h2.1v2.1h-2.1z"/><path  d="m102.6 70h2.1v2.1h-2.1z"/><path  d="m106.7 70h2.1v2.1h-2.1z"/><path  d="m110.8 70h2.1v2.1h-2.1z"/><path  d="m112.8 70h2.2v2.1h-2.2z"/><path  d="m114.9 70h2.1v2.1h-2.1z"/><path  d="m116.9 70h2.1v2.1h-2.1z"/><path  d="m20.9 72h2.1v2.1h-2.1z"/><path  d="m22.9 72h2.1v2.1h-2.1z"/><path  d="m25 72h2.1v2.1h-2.1z"/><path  d="m27 72h2.1v2.1h-2.1z"/><path  d="m29 72h2.1v2.1h-2.1z"/><path  d="m37.2 72h2.1v2.1h-2.1z"/><path  d="m41.3 72h2.1v2.1h-2.1z"/><path  d="m43.4 72h2.1v2.1h-2.1z"/><path  d="m49.5 72h2.1v2.1h-2.1z"/><path  d="m51.5 72h2.1v2.1h-2.1z"/><path  d="m59.7 72h2.1v2.1h-2.1z"/><path  d="m65.8 72h2.1v2.1h-2.1z"/><path  d="m74 72h2.1v2.1h-2.1z"/><path  d="m78.1 72h2.1v2.1h-2.1z"/><path  d="m80.1 72h2.1v2.1h-2.1z"/><path  d="m82.2 72h2.1v2.1h-2.1z"/><path  d="m84.2 72h2.1v2.1h-2.1z"/><path  d="m92.4 72h2.1v2.1h-2.1z"/><path  d="m94.5 72h2.1v2.1h-2.1z"/><path  d="m100.6 72h2.1v2.1h-2.1z"/><path  d="m102.6 72h2.1v2.1h-2.1z"/><path  d="m110.8 72h2.1v2.1h-2.1z"/><path  d="m20.9 74.1h2.1v2.1h-2.1z"/><path  d="m25 74.1h2.1v2.1h-2.1z"/><path  d="m29 74.1h2.1v2.1h-2.1z"/><path  d="m31.1 74.1h2.1v2.1h-2.1z"/><path  d="m33.1 74.1h2.1v2.1h-2.1z"/><path  d="m35.2 74.1h2.1v2.1h-2.1z"/><path  d="m37.2 74.1h2.1v2.1h-2.1z"/><path  d="m41.3 74.1h2.1v2.1h-2.1z"/><path  d="m43.4 74.1h2.1v2.1h-2.1z"/><path  d="m49.5 74.1h2.1v2.1h-2.1z"/><path  d="m51.5 74.1h2.1v2.1h-2.1z"/><path  d="m53.6 74.1h2.1v2.1h-2.1z"/><path  d="m59.7 74.1h2.1v2.1h-2.1z"/><path  d="m61.7 74.1h2.2v2.1h-2.2z"/><path  d="m65.8 74.1h2.1v2.1h-2.1z"/><path  d="m67.9 74.1h2.1v2.1h-2.1z"/><path  d="m69.9 74.1h2.1v2.1h-2.1z"/><path  d="m72 74.1h2.1v2.1h-2.1z"/><path  d="m74 74.1h2.1v2.1h-2.1z"/><path  d="m78.1 74.1h2.1v2.1h-2.1z"/><path  d="m80.1 74.1h2.1v2.1h-2.1z"/><path  d="m84.2 74.1h2.1v2.1h-2.1z"/><path  d="m86.3 74.1h2.1v2.1h-2.1z"/><path  d="m88.3 74.1h2.1v2.1h-2.1z"/><path  d="m90.4 74.1h2.1v2.1h-2.1z"/><path  d="m98.5 74.1h2.1v2.1h-2.1z"/><path  d="m100.6 74.1h2.1v2.1h-2.1z"/><path  d="m102.6 74.1h2.1v2.1h-2.1z"/><path  d="m104.7 74.1h2.1v2.1h-2.1z"/><path  d="m106.7 74.1h2.1v2.1h-2.1z"/><path  d="m108.8 74.1h2.1v2.1h-2.1z"/><path  d="m110.8 74.1h2.1v2.1h-2.1z"/><path  d="m112.8 74.1h2.2v2.1h-2.2z"/><path  d="m116.9 74.1h2.1v2.1h-2.1z"/><path  d="m119 74.1h2.1v2.1h-2.1z"/><path  d="m20.9 76.1h2.1v2.1h-2.1z"/><path  d="m27 76.1h2.1v2.1h-2.1z"/><path  d="m29 76.1h2.1v2.1h-2.1z"/><path  d="m31.1 76.1h2.1v2.1h-2.1z"/><path  d="m37.2 76.1h2.1v2.1h-2.1z"/><path  d="m39.3 76.1h2.1v2.1h-2.1z"/><path  d="m41.3 76.1h2.1v2.1h-2.1z"/><path  d="m43.4 76.1h2.1v2.1h-2.1z"/><path  d="m45.4 76.1h2.1v2.1h-2.1z"/><path  d="m47.4 76.1h2.1v2.1h-2.1z"/><path  d="m51.5 76.1h2.1v2.1h-2.1z"/><path  d="m53.6 76.1h2.1v2.1h-2.1z"/><path  d="m67.9 76.1h2.1v2.1h-2.1z"/><path  d="m78.1 76.1h2.1v2.1h-2.1z"/><path  d="m86.3 76.1h2.1v2.1h-2.1z"/><path  d="m88.3 76.1h2.1v2.1h-2.1z"/><path  d="m90.4 76.1h2.1v2.1h-2.1z"/><path  d="m96.5 76.1h2.1v2.1h-2.1z"/><path  d="m98.5 76.1h2.1v2.1h-2.1z"/><path  d="m104.7 76.1h2.1v2.1h-2.1z"/><path  d="m116.9 76.1h2.1v2.1h-2.1z"/><path  d="m20.9 78.2h2.1v2.1h-2.1z"/><path  d="m22.9 78.2h2.1v2.1h-2.1z"/><path  d="m25 78.2h2.1v2.1h-2.1z"/><path  d="m31.1 78.2h2.1v2.1h-2.1z"/><path  d="m33.1 78.2h2.1v2.1h-2.1z"/><path  d="m35.2 78.2h2.1v2.1h-2.1z"/><path  d="m37.2 78.2h2.1v2.1h-2.1z"/><path  d="m39.3 78.2h2.1v2.1h-2.1z"/><path  d="m43.4 78.2h2.1v2.1h-2.1z"/><path  d="m47.4 78.2h2.1v2.1h-2.1z"/><path  d="m51.5 78.2h2.1v2.1h-2.1z"/><path  d="m53.6 78.2h2.1v2.1h-2.1z"/><path  d="m55.6 78.2h2.1v2.1h-2.1z"/><path  d="m57.7 78.2h2.1v2.1h-2.1z"/><path  d="m65.8 78.2h2.1v2.1h-2.1z"/><path  d="m67.9 78.2h2.1v2.1h-2.1z"/><path  d="m69.9 78.2h2.1v2.1h-2.1z"/><path  d="m80.1 78.2h2.1v2.1h-2.1z"/><path  d="m82.2 78.2h2.1v2.1h-2.1z"/><path  d="m84.2 78.2h2.1v2.1h-2.1z"/><path  d="m92.4 78.2h2.1v2.1h-2.1z"/><path  d="m94.5 78.2h2.1v2.1h-2.1z"/><path  d="m96.5 78.2h2.1v2.1h-2.1z"/><path  d="m98.5 78.2h2.1v2.1h-2.1z"/><path  d="m100.6 78.2h2.1v2.1h-2.1z"/><path  d="m104.7 78.2h2.1v2.1h-2.1z"/><path  d="m106.7 78.2h2.1v2.1h-2.1z"/><path  d="m110.8 78.2h2.1v2.1h-2.1z"/><path  d="m112.8 78.2h2.2v2.1h-2.2z"/><path  d="m114.9 78.2h2.1v2.1h-2.1z"/><path  d="m116.9 78.2h2.1v2.1h-2.1z"/><path  d="m29 80.2h2.1v2.1h-2.1z"/><path  d="m39.3 80.2h2.1v2.1h-2.1z"/><path  d="m41.3 80.2h2.1v2.1h-2.1z"/><path  d="m45.4 80.2h2.1v2.1h-2.1z"/><path  d="m47.4 80.2h2.1v2.1h-2.1z"/><path  d="m53.6 80.2h2.1v2.1h-2.1z"/><path  d="m59.7 80.2h2.1v2.1h-2.1z"/><path  d="m61.7 80.2h2.2v2.1h-2.2z"/><path  d="m63.8 80.2h2.1v2.1h-2.1z"/><path  d="m65.8 80.2h2.1v2.1h-2.1z"/><path  d="m69.9 80.2h2.1v2.1h-2.1z"/><path  d="m72 80.2h2.1v2.1h-2.1z"/><path  d="m78.1 80.2h2.1v2.1h-2.1z"/><path  d="m80.1 80.2h2.1v2.1h-2.1z"/><path  d="m82.2 80.2h2.1v2.1h-2.1z"/><path  d="m84.2 80.2h2.1v2.1h-2.1z"/><path  d="m86.3 80.2h2.1v2.1h-2.1z"/><path  d="m88.3 80.2h2.1v2.1h-2.1z"/><path  d="m92.4 80.2h2.1v2.1h-2.1z"/><path  d="m96.5 80.2h2.1v2.1h-2.1z"/><path  d="m100.6 80.2h2.1v2.1h-2.1z"/><path  d="m102.6 80.2h2.1v2.1h-2.1z"/><path  d="m114.9 80.2h2.1v2.1h-2.1z"/><path  d="m22.9 82.3h2.1v2.1h-2.1z"/><path  d="m25 82.3h2.1v2.1h-2.1z"/><path  d="m29 82.3h2.1v2.1h-2.1z"/><path  d="m31.1 82.3h2.1v2.1h-2.1z"/><path  d="m33.1 82.3h2.1v2.1h-2.1z"/><path  d="m35.2 82.3h2.1v2.1h-2.1z"/><path  d="m37.2 82.3h2.1v2.1h-2.1z"/><path  d="m41.3 82.3h2.1v2.1h-2.1z"/><path  d="m43.4 82.3h2.1v2.1h-2.1z"/><path  d="m53.6 82.3h2.1v2.1h-2.1z"/><path  d="m61.7 82.3h2.2v2.1h-2.2z"/><path  d="m65.8 82.3h2.1v2.1h-2.1z"/><path  d="m67.9 82.3h2.1v2.1h-2.1z"/><path  d="m69.9 82.3h2.1v2.1h-2.1z"/><path  d="m72 82.3h2.1v2.1h-2.1z"/><path  d="m84.2 82.3h2.1v2.1h-2.1z"/><path  d="m86.3 82.3h2.1v2.1h-2.1z"/><path  d="m88.3 82.3h2.1v2.1h-2.1z"/><path  d="m90.4 82.3h2.1v2.1h-2.1z"/><path  d="m92.4 82.3h2.1v2.1h-2.1z"/><path  d="m94.5 82.3h2.1v2.1h-2.1z"/><path  d="m96.5 82.3h2.1v2.1h-2.1z"/><path  d="m98.5 82.3h2.1v2.1h-2.1z"/><path  d="m100.6 82.3h2.1v2.1h-2.1z"/><path  d="m104.7 82.3h2.1v2.1h-2.1z"/><path  d="m106.7 82.3h2.1v2.1h-2.1z"/><path  d="m108.8 82.3h2.1v2.1h-2.1z"/><path  d="m112.8 82.3h2.2v2.1h-2.2z"/><path  d="m116.9 82.3h2.1v2.1h-2.1z"/><path  d="m119 82.3h2.1v2.1h-2.1z"/><path  d="m20.9 84.3h2.1v2.1h-2.1z"/><path  d="m29 84.3h2.1v2.1h-2.1z"/><path  d="m31.1 84.3h2.1v2.1h-2.1z"/><path  d="m37.2 84.3h2.1v2.1h-2.1z"/><path  d="m39.3 84.3h2.1v2.1h-2.1z"/><path  d="m41.3 84.3h2.1v2.1h-2.1z"/><path  d="m43.4 84.3h2.1v2.1h-2.1z"/><path  d="m45.4 84.3h2.1v2.1h-2.1z"/><path  d="m47.4 84.3h2.1v2.1h-2.1z"/><path  d="m51.5 84.3h2.1v2.1h-2.1z"/><path  d="m55.6 84.3h2.1v2.1h-2.1z"/><path  d="m57.7 84.3h2.1v2.1h-2.1z"/><path  d="m59.7 84.3h2.1v2.1h-2.1z"/><path  d="m61.7 84.3h2.2v2.1h-2.2z"/><path  d="m65.8 84.3h2.1v2.1h-2.1z"/><path  d="m69.9 84.3h2.1v2.1h-2.1z"/><path  d="m74 84.3h2.1v2.1h-2.1z"/><path  d="m76.1 84.3h2.1v2.1h-2.1z"/><path  d="m78.1 84.3h2.1v2.1h-2.1z"/><path  d="m82.2 84.3h2.1v2.1h-2.1z"/><path  d="m86.3 84.3h2.1v2.1h-2.1z"/><path  d="m90.4 84.3h2.1v2.1h-2.1z"/><path  d="m92.4 84.3h2.1v2.1h-2.1z"/><path  d="m96.5 84.3h2.1v2.1h-2.1z"/><path  d="m98.5 84.3h2.1v2.1h-2.1z"/><path  d="m108.8 84.3h2.1v2.1h-2.1z"/><path  d="m110.8 84.3h2.1v2.1h-2.1z"/><path  d="m116.9 84.3h2.1v2.1h-2.1z"/><path  d="m25 86.3h2.1v2.2h-2.1z"/><path  d="m29 86.3h2.1v2.2h-2.1z"/><path  d="m31.1 86.3h2.1v2.2h-2.1z"/><path  d="m33.1 86.3h2.1v2.2h-2.1z"/><path  d="m39.3 86.3h2.1v2.2h-2.1z"/><path  d="m43.4 86.3h2.1v2.2h-2.1z"/><path  d="m45.4 86.3h2.1v2.2h-2.1z"/><path  d="m47.4 86.3h2.1v2.2h-2.1z"/><path  d="m51.5 86.3h2.1v2.2h-2.1z"/><path  d="m59.7 86.3h2.1v2.2h-2.1z"/><path  d="m61.7 86.3h2.2v2.2h-2.2z"/><path  d="m65.8 86.3h2.1v2.2h-2.1z"/><path  d="m72 86.3h2.1v2.2h-2.1z"/><path  d="m90.4 86.3h2.1v2.2h-2.1z"/><path  d="m92.4 86.3h2.1v2.2h-2.1z"/><path  d="m94.5 86.3h2.1v2.2h-2.1z"/><path  d="m96.5 86.3h2.1v2.2h-2.1z"/><path  d="m98.5 86.3h2.1v2.2h-2.1z"/><path  d="m100.6 86.3h2.1v2.2h-2.1z"/><path  d="m102.6 86.3h2.1v2.2h-2.1z"/><path  d="m104.7 86.3h2.1v2.2h-2.1z"/><path  d="m110.8 86.3h2.1v2.2h-2.1z"/><path  d="m112.8 86.3h2.2v2.2h-2.2z"/><path  d="m114.9 86.3h2.1v2.2h-2.1z"/><path  d="m116.9 86.3h2.1v2.2h-2.1z"/><path  d="m20.9 88.4h2.1v2.1h-2.1z"/><path  d="m22.9 88.4h2.1v2.1h-2.1z"/><path  d="m27 88.4h2.1v2.1h-2.1z"/><path  d="m29 88.4h2.1v2.1h-2.1z"/><path  d="m35.2 88.4h2.1v2.1h-2.1z"/><path  d="m43.4 88.4h2.1v2.1h-2.1z"/><path  d="m45.4 88.4h2.1v2.1h-2.1z"/><path  d="m47.4 88.4h2.1v2.1h-2.1z"/><path  d="m49.5 88.4h2.1v2.1h-2.1z"/><path  d="m51.5 88.4h2.1v2.1h-2.1z"/><path  d="m53.6 88.4h2.1v2.1h-2.1z"/><path  d="m57.7 88.4h2.1v2.1h-2.1z"/><path  d="m59.7 88.4h2.1v2.1h-2.1z"/><path  d="m69.9 88.4h2.1v2.1h-2.1z"/><path  d="m78.1 88.4h2.1v2.1h-2.1z"/><path  d="m80.1 88.4h2.1v2.1h-2.1z"/><path  d="m82.2 88.4h2.1v2.1h-2.1z"/><path  d="m84.2 88.4h2.1v2.1h-2.1z"/><path  d="m92.4 88.4h2.1v2.1h-2.1z"/><path  d="m94.5 88.4h2.1v2.1h-2.1z"/><path  d="m96.5 88.4h2.1v2.1h-2.1z"/><path  d="m100.6 88.4h2.1v2.1h-2.1z"/><path  d="m104.7 88.4h2.1v2.1h-2.1z"/><path  d="m108.8 88.4h2.1v2.1h-2.1z"/><path  d="m22.9 90.4h2.1v2.1h-2.1z"/><path  d="m25 90.4h2.1v2.1h-2.1z"/><path  d="m33.1 90.4h2.1v2.1h-2.1z"/><path  d="m35.2 90.4h2.1v2.1h-2.1z"/><path  d="m37.2 90.4h2.1v2.1h-2.1z"/><path  d="m39.3 90.4h2.1v2.1h-2.1z"/><path  d="m45.4 90.4h2.1v2.1h-2.1z"/><path  d="m49.5 90.4h2.1v2.1h-2.1z"/><path  d="m51.5 90.4h2.1v2.1h-2.1z"/><path  d="m53.6 90.4h2.1v2.1h-2.1z"/><path  d="m57.7 90.4h2.1v2.1h-2.1z"/><path  d="m63.8 90.4h2.1v2.1h-2.1z"/><path  d="m65.8 90.4h2.1v2.1h-2.1z"/><path  d="m67.9 90.4h2.1v2.1h-2.1z"/><path  d="m69.9 90.4h2.1v2.1h-2.1z"/><path  d="m72 90.4h2.1v2.1h-2.1z"/><path  d="m76.1 90.4h2.1v2.1h-2.1z"/><path  d="m86.3 90.4h2.1v2.1h-2.1z"/><path  d="m90.4 90.4h2.1v2.1h-2.1z"/><path  d="m96.5 90.4h2.1v2.1h-2.1z"/><path  d="m98.5 90.4h2.1v2.1h-2.1z"/><path  d="m106.7 90.4h2.1v2.1h-2.1z"/><path  d="m110.8 90.4h2.1v2.1h-2.1z"/><path  d="m112.8 90.4h2.2v2.1h-2.2z"/><path  d="m116.9 90.4h2.1v2.1h-2.1z"/><path  d="m119 90.4h2.1v2.1h-2.1z"/><path  d="m22.9 92.5h2.1v2.1h-2.1z"/><path  d="m29 92.5h2.1v2.1h-2.1z"/><path  d="m31.1 92.5h2.1v2.1h-2.1z"/><path  d="m35.2 92.5h2.1v2.1h-2.1z"/><path  d="m37.2 92.5h2.1v2.1h-2.1z"/><path  d="m43.4 92.5h2.1v2.1h-2.1z"/><path  d="m47.4 92.5h2.1v2.1h-2.1z"/><path  d="m49.5 92.5h2.1v2.1h-2.1z"/><path  d="m53.6 92.5h2.1v2.1h-2.1z"/><path  d="m57.7 92.5h2.1v2.1h-2.1z"/><path  d="m59.7 92.5h2.1v2.1h-2.1z"/><path  d="m63.8 92.5h2.1v2.1h-2.1z"/><path  d="m67.9 92.5h2.1v2.1h-2.1z"/><path  d="m74 92.5h2.1v2.1h-2.1z"/><path  d="m78.1 92.5h2.1v2.1h-2.1z"/><path  d="m80.1 92.5h2.1v2.1h-2.1z"/><path  d="m86.3 92.5h2.1v2.1h-2.1z"/><path  d="m98.5 92.5h2.1v2.1h-2.1z"/><path  d="m102.6 92.5h2.1v2.1h-2.1z"/><path  d="m22.9 94.5h2.1v2.1h-2.1z"/><path  d="m33.1 94.5h2.1v2.1h-2.1z"/><path  d="m35.2 94.5h2.1v2.1h-2.1z"/><path  d="m37.2 94.5h2.1v2.1h-2.1z"/><path  d="m39.3 94.5h2.1v2.1h-2.1z"/><path  d="m47.4 94.5h2.1v2.1h-2.1z"/><path  d="m49.5 94.5h2.1v2.1h-2.1z"/><path  d="m51.5 94.5h2.1v2.1h-2.1z"/><path  d="m53.6 94.5h2.1v2.1h-2.1z"/><path  d="m55.6 94.5h2.1v2.1h-2.1z"/><path  d="m57.7 94.5h2.1v2.1h-2.1z"/><path  d="m61.7 94.5h2.2v2.1h-2.2z"/><path  d="m63.8 94.5h2.1v2.1h-2.1z"/><path  d="m67.9 94.5h2.1v2.1h-2.1z"/><path  d="m84.2 94.5h2.1v2.1h-2.1z"/><path  d="m92.4 94.5h2.1v2.1h-2.1z"/><path  d="m94.5 94.5h2.1v2.1h-2.1z"/><path  d="m96.5 94.5h2.1v2.1h-2.1z"/><path  d="m98.5 94.5h2.1v2.1h-2.1z"/><path  d="m100.6 94.5h2.1v2.1h-2.1z"/><path  d="m104.7 94.5h2.1v2.1h-2.1z"/><path  d="m110.8 94.5h2.1v2.1h-2.1z"/><path  d="m114.9 94.5h2.1v2.1h-2.1z"/><path  d="m22.9 96.6h2.1v2.1h-2.1z"/><path  d="m27 96.6h2.1v2.1h-2.1z"/><path  d="m31.1 96.6h2.1v2.1h-2.1z"/><path  d="m37.2 96.6h2.1v2.1h-2.1z"/><path  d="m39.3 96.6h2.1v2.1h-2.1z"/><path  d="m41.3 96.6h2.1v2.1h-2.1z"/><path  d="m43.4 96.6h2.1v2.1h-2.1z"/><path  d="m45.4 96.6h2.1v2.1h-2.1z"/><path  d="m53.6 96.6h2.1v2.1h-2.1z"/><path  d="m55.6 96.6h2.1v2.1h-2.1z"/><path  d="m57.7 96.6h2.1v2.1h-2.1z"/><path  d="m59.7 96.6h2.1v2.1h-2.1z"/><path  d="m63.8 96.6h2.1v2.1h-2.1z"/><path  d="m65.8 96.6h2.1v2.1h-2.1z"/><path  d="m67.9 96.6h2.1v2.1h-2.1z"/><path  d="m69.9 96.6h2.1v2.1h-2.1z"/><path  d="m72 96.6h2.1v2.1h-2.1z"/><path  d="m76.1 96.6h2.1v2.1h-2.1z"/><path  d="m78.1 96.6h2.1v2.1h-2.1z"/><path  d="m80.1 96.6h2.1v2.1h-2.1z"/><path  d="m82.2 96.6h2.1v2.1h-2.1z"/><path  d="m84.2 96.6h2.1v2.1h-2.1z"/><path  d="m92.4 96.6h2.1v2.1h-2.1z"/><path  d="m104.7 96.6h2.1v2.1h-2.1z"/><path  d="m106.7 96.6h2.1v2.1h-2.1z"/><path  d="m108.8 96.6h2.1v2.1h-2.1z"/><path  d="m114.9 96.6h2.1v2.1h-2.1z"/><path  d="m22.9 98.6h2.1v2.1h-2.1z"/><path  d="m31.1 98.6h2.1v2.1h-2.1z"/><path  d="m33.1 98.6h2.1v2.1h-2.1z"/><path  d="m35.2 98.6h2.1v2.1h-2.1z"/><path  d="m37.2 98.6h2.1v2.1h-2.1z"/><path  d="m39.3 98.6h2.1v2.1h-2.1z"/><path  d="m41.3 98.6h2.1v2.1h-2.1z"/><path  d="m45.4 98.6h2.1v2.1h-2.1z"/><path  d="m49.5 98.6h2.1v2.1h-2.1z"/><path  d="m51.5 98.6h2.1v2.1h-2.1z"/><path  d="m53.6 98.6h2.1v2.1h-2.1z"/><path  d="m59.7 98.6h2.1v2.1h-2.1z"/><path  d="m65.8 98.6h2.1v2.1h-2.1z"/><path  d="m69.9 98.6h2.1v2.1h-2.1z"/><path  d="m72 98.6h2.1v2.1h-2.1z"/><path  d="m78.1 98.6h2.1v2.1h-2.1z"/><path  d="m84.2 98.6h2.1v2.1h-2.1z"/><path  d="m88.3 98.6h2.1v2.1h-2.1z"/><path  d="m90.4 98.6h2.1v2.1h-2.1z"/><path  d="m92.4 98.6h2.1v2.1h-2.1z"/><path  d="m98.5 98.6h2.1v2.1h-2.1z"/><path  d="m100.6 98.6h2.1v2.1h-2.1z"/><path  d="m104.7 98.6h2.1v2.1h-2.1z"/><path  d="m106.7 98.6h2.1v2.1h-2.1z"/><path  d="m110.8 98.6h2.1v2.1h-2.1z"/><path  d="m112.8 98.6h2.2v2.1h-2.2z"/><path  d="m116.9 98.6h2.1v2.1h-2.1z"/><path  d="m119 98.6h2.1v2.1h-2.1z"/><path  d="m22.9 100.7h2.1v2.1h-2.1z"/><path  d="m25 100.7h2.1v2.1h-2.1z"/><path  d="m27 100.7h2.1v2.1h-2.1z"/><path  d="m35.2 100.7h2.1v2.1h-2.1z"/><path  d="m41.3 100.7h2.1v2.1h-2.1z"/><path  d="m45.4 100.7h2.1v2.1h-2.1z"/><path  d="m47.4 100.7h2.1v2.1h-2.1z"/><path  d="m49.5 100.7h2.1v2.1h-2.1z"/><path  d="m59.7 100.7h2.1v2.1h-2.1z"/><path  d="m63.8 100.7h2.1v2.1h-2.1z"/><path  d="m65.8 100.7h2.1v2.1h-2.1z"/><path  d="m67.9 100.7h2.1v2.1h-2.1z"/><path  d="m74 100.7h2.1v2.1h-2.1z"/><path  d="m76.1 100.7h2.1v2.1h-2.1z"/><path  d="m78.1 100.7h2.1v2.1h-2.1z"/><path  d="m80.1 100.7h2.1v2.1h-2.1z"/><path  d="m82.2 100.7h2.1v2.1h-2.1z"/><path  d="m86.3 100.7h2.1v2.1h-2.1z"/><path  d="m88.3 100.7h2.1v2.1h-2.1z"/><path  d="m90.4 100.7h2.1v2.1h-2.1z"/><path  d="m96.5 100.7h2.1v2.1h-2.1z"/><path  d="m98.5 100.7h2.1v2.1h-2.1z"/><path  d="m102.6 100.7h2.1v2.1h-2.1z"/><path  d="m108.8 100.7h2.1v2.1h-2.1z"/><path  d="m110.8 100.7h2.1v2.1h-2.1z"/><path  d="m116.9 100.7h2.1v2.1h-2.1z"/><path  d="m119 100.7h2.1v2.1h-2.1z"/><path  d="m20.9 102.7h2.1v2.1h-2.1z"/><path  d="m22.9 102.7h2.1v2.1h-2.1z"/><path  d="m25 102.7h2.1v2.1h-2.1z"/><path  d="m33.1 102.7h2.1v2.1h-2.1z"/><path  d="m37.2 102.7h2.1v2.1h-2.1z"/><path  d="m43.4 102.7h2.1v2.1h-2.1z"/><path  d="m45.4 102.7h2.1v2.1h-2.1z"/><path  d="m47.4 102.7h2.1v2.1h-2.1z"/><path  d="m51.5 102.7h2.1v2.1h-2.1z"/><path  d="m53.6 102.7h2.1v2.1h-2.1z"/><path  d="m57.7 102.7h2.1v2.1h-2.1z"/><path  d="m59.7 102.7h2.1v2.1h-2.1z"/><path  d="m61.7 102.7h2.2v2.1h-2.2z"/><path  d="m65.8 102.7h2.1v2.1h-2.1z"/><path  d="m67.9 102.7h2.1v2.1h-2.1z"/><path  d="m69.9 102.7h2.1v2.1h-2.1z"/><path  d="m72 102.7h2.1v2.1h-2.1z"/><path  d="m74 102.7h2.1v2.1h-2.1z"/><path  d="m80.1 102.7h2.1v2.1h-2.1z"/><path  d="m82.2 102.7h2.1v2.1h-2.1z"/><path  d="m92.4 102.7h2.1v2.1h-2.1z"/><path  d="m94.5 102.7h2.1v2.1h-2.1z"/><path  d="m96.5 102.7h2.1v2.1h-2.1z"/><path  d="m100.6 102.7h2.1v2.1h-2.1z"/><path  d="m102.6 102.7h2.1v2.1h-2.1z"/><path  d="m104.7 102.7h2.1v2.1h-2.1z"/><path  d="m106.7 102.7h2.1v2.1h-2.1z"/><path  d="m108.8 102.7h2.1v2.1h-2.1z"/><path  d="m110.8 102.7h2.1v2.1h-2.1z"/><path  d="m112.8 102.7h2.2v2.1h-2.2z"/><path  d="m114.9 102.7h2.1v2.1h-2.1z"/><path  d="m119 102.7h2.1v2.1h-2.1z"/><path  d="m37.2 104.8h2.1v2.1h-2.1z"/><path  d="m43.4 104.8h2.1v2.1h-2.1z"/><path  d="m51.5 104.8h2.1v2.1h-2.1z"/><path  d="m57.7 104.8h2.1v2.1h-2.1z"/><path  d="m59.7 104.8h2.1v2.1h-2.1z"/><path  d="m65.8 104.8h2.1v2.1h-2.1z"/><path  d="m74 104.8h2.1v2.1h-2.1z"/><path  d="m76.1 104.8h2.1v2.1h-2.1z"/><path  d="m78.1 104.8h2.1v2.1h-2.1z"/><path  d="m80.1 104.8h2.1v2.1h-2.1z"/><path  d="m82.2 104.8h2.1v2.1h-2.1z"/><path  d="m86.3 104.8h2.1v2.1h-2.1z"/><path  d="m96.5 104.8h2.1v2.1h-2.1z"/><path  d="m102.6 104.8h2.1v2.1h-2.1z"/><path  d="m110.8 104.8h2.1v2.1h-2.1z"/><path  d="m112.8 104.8h2.2v2.1h-2.2z"/><path  d="m41.3 106.8h2.1v2.1h-2.1z"/><path  d="m43.4 106.8h2.1v2.1h-2.1z"/><path  d="m65.8 106.8h2.1v2.1h-2.1z"/><path  d="m69.9 106.8h2.1v2.1h-2.1z"/><path  d="m74 106.8h2.1v2.1h-2.1z"/><path  d="m78.1 106.8h2.1v2.1h-2.1z"/><path  d="m84.2 106.8h2.1v2.1h-2.1z"/><path  d="m90.4 106.8h2.1v2.1h-2.1z"/><path  d="m92.4 106.8h2.1v2.1h-2.1z"/><path  d="m94.5 106.8h2.1v2.1h-2.1z"/><path  d="m96.5 106.8h2.1v2.1h-2.1z"/><path  d="m98.5 106.8h2.1v2.1h-2.1z"/><path  d="m102.6 106.8h2.1v2.1h-2.1z"/><path  d="m106.7 106.8h2.1v2.1h-2.1z"/><path  d="m110.8 106.8h2.1v2.1h-2.1z"/><path  d="m116.9 106.8h2.1v2.1h-2.1z"/><path  d="m119 106.8h2.1v2.1h-2.1z"/><path  d="m37.2 108.9h2.1v2.1h-2.1z"/><path  d="m41.3 108.9h2.1v2.1h-2.1z"/><path  d="m45.4 108.9h2.1v2.1h-2.1z"/><path  d="m47.4 108.9h2.1v2.1h-2.1z"/><path  d="m49.5 108.9h2.1v2.1h-2.1z"/><path  d="m51.5 108.9h2.1v2.1h-2.1z"/><path  d="m53.6 108.9h2.1v2.1h-2.1z"/><path  d="m59.7 108.9h2.1v2.1h-2.1z"/><path  d="m63.8 108.9h2.1v2.1h-2.1z"/><path  d="m65.8 108.9h2.1v2.1h-2.1z"/><path  d="m74 108.9h2.1v2.1h-2.1z"/><path  d="m78.1 108.9h2.1v2.1h-2.1z"/><path  d="m86.3 108.9h2.1v2.1h-2.1z"/><path  d="m90.4 108.9h2.1v2.1h-2.1z"/><path  d="m102.6 108.9h2.1v2.1h-2.1z"/><path  d="m110.8 108.9h2.1v2.1h-2.1z"/><path  d="m116.9 108.9h2.1v2.1h-2.1z"/><path  d="m119 108.9h2.1v2.1h-2.1z"/><path  d="m37.2 110.9h2.1v2.1h-2.1z"/><path  d="m43.4 110.9h2.1v2.1h-2.1z"/><path  d="m47.4 110.9h2.1v2.1h-2.1z"/><path  d="m51.5 110.9h2.1v2.1h-2.1z"/><path  d="m55.6 110.9h2.1v2.1h-2.1z"/><path  d="m57.7 110.9h2.1v2.1h-2.1z"/><path  d="m59.7 110.9h2.1v2.1h-2.1z"/><path  d="m65.8 110.9h2.1v2.1h-2.1z"/><path  d="m67.9 110.9h2.1v2.1h-2.1z"/><path  d="m69.9 110.9h2.1v2.1h-2.1z"/><path  d="m72 110.9h2.1v2.1h-2.1z"/><path  d="m74 110.9h2.1v2.1h-2.1z"/><path  d="m80.1 110.9h2.1v2.1h-2.1z"/><path  d="m82.2 110.9h2.1v2.1h-2.1z"/><path  d="m92.4 110.9h2.1v2.1h-2.1z"/><path  d="m94.5 110.9h2.1v2.1h-2.1z"/><path  d="m102.6 110.9h2.1v2.1h-2.1z"/><path  d="m104.7 110.9h2.1v2.1h-2.1z"/><path  d="m106.7 110.9h2.1v2.1h-2.1z"/><path  d="m108.8 110.9h2.1v2.1h-2.1z"/><path  d="m110.8 110.9h2.1v2.1h-2.1z"/><path  d="m114.9 110.9h2.1v2.1h-2.1z"/><path  d="m37.2 112.9h2.1v2.2h-2.1z"/><path  d="m41.3 112.9h2.1v2.2h-2.1z"/><path  d="m45.4 112.9h2.1v2.2h-2.1z"/><path  d="m47.4 112.9h2.1v2.2h-2.1z"/><path  d="m49.5 112.9h2.1v2.2h-2.1z"/><path  d="m53.6 112.9h2.1v2.2h-2.1z"/><path  d="m65.8 112.9h2.1v2.2h-2.1z"/><path  d="m72 112.9h2.1v2.2h-2.1z"/><path  d="m74 112.9h2.1v2.2h-2.1z"/><path  d="m80.1 112.9h2.1v2.2h-2.1z"/><path  d="m82.2 112.9h2.1v2.2h-2.1z"/><path  d="m84.2 112.9h2.1v2.2h-2.1z"/><path  d="m96.5 112.9h2.1v2.2h-2.1z"/><path  d="m100.6 112.9h2.1v2.2h-2.1z"/><path  d="m102.6 112.9h2.1v2.2h-2.1z"/><path  d="m108.8 112.9h2.1v2.2h-2.1z"/><path  d="m110.8 112.9h2.1v2.2h-2.1z"/><path  d="m112.8 112.9h2.2v2.2h-2.2z"/><path  d="m114.9 112.9h2.1v2.2h-2.1z"/><path  d="m119 112.9h2.1v2.2h-2.1z"/><path  d="m37.2 115h2.1v2.1h-2.1z"/><path  d="m39.3 115h2.1v2.1h-2.1z"/><path  d="m43.4 115h2.1v2.1h-2.1z"/><path  d="m45.4 115h2.1v2.1h-2.1z"/><path  d="m47.4 115h2.1v2.1h-2.1z"/><path  d="m51.5 115h2.1v2.1h-2.1z"/><path  d="m53.6 115h2.1v2.1h-2.1z"/><path  d="m55.6 115h2.1v2.1h-2.1z"/><path  d="m59.7 115h2.1v2.1h-2.1z"/><path  d="m63.8 115h2.1v2.1h-2.1z"/><path  d="m67.9 115h2.1v2.1h-2.1z"/><path  d="m69.9 115h2.1v2.1h-2.1z"/><path  d="m74 115h2.1v2.1h-2.1z"/><path  d="m90.4 115h2.1v2.1h-2.1z"/><path  d="m92.4 115h2.1v2.1h-2.1z"/><path  d="m98.5 115h2.1v2.1h-2.1z"/><path  d="m104.7 115h2.1v2.1h-2.1z"/><path  d="m106.7 115h2.1v2.1h-2.1z"/><path  d="m108.8 115h2.1v2.1h-2.1z"/><path  d="m45.4 117h2.1v2.1h-2.1z"/><path  d="m47.4 117h2.1v2.1h-2.1z"/><path  d="m49.5 117h2.1v2.1h-2.1z"/><path  d="m65.8 117h2.1v2.1h-2.1z"/><path  d="m69.9 117h2.1v2.1h-2.1z"/><path  d="m72 117h2.1v2.1h-2.1z"/><path  d="m74 117h2.1v2.1h-2.1z"/><path  d="m78.1 117h2.1v2.1h-2.1z"/><path  d="m80.1 117h2.1v2.1h-2.1z"/><path  d="m82.2 117h2.1v2.1h-2.1z"/><path  d="m86.3 117h2.1v2.1h-2.1z"/><path  d="m88.3 117h2.1v2.1h-2.1z"/><path  d="m90.4 117h2.1v2.1h-2.1z"/><path  d="m104.7 117h2.1v2.1h-2.1z"/><path  d="m106.7 117h2.1v2.1h-2.1z"/><path  d="m119 117h2.1v2.1h-2.1z"/><path  d="m37.2 119.1h2.1v2.1h-2.1z"/><path  d="m43.4 119.1h2.1v2.1h-2.1z"/><path  d="m45.4 119.1h2.1v2.1h-2.1z"/><path  d="m47.4 119.1h2.1v2.1h-2.1z"/><path  d="m53.6 119.1h2.1v2.1h-2.1z"/><path  d="m55.6 119.1h2.1v2.1h-2.1z"/><path  d="m57.7 119.1h2.1v2.1h-2.1z"/><path  d="m59.7 119.1h2.1v2.1h-2.1z"/><path  d="m61.7 119.1h2.2v2.1h-2.2z"/><path  d="m67.9 119.1h2.1v2.1h-2.1z"/><path  d="m80.1 119.1h2.1v2.1h-2.1z"/><path  d="m82.2 119.1h2.1v2.1h-2.1z"/><path  d="m84.2 119.1h2.1v2.1h-2.1z"/><path  d="m92.4 119.1h2.1v2.1h-2.1z"/><path  d="m94.5 119.1h2.1v2.1h-2.1z"/><path  d="m96.5 119.1h2.1v2.1h-2.1z"/><path  d="m98.5 119.1h2.1v2.1h-2.1z"/><path  d="m100.6 119.1h2.1v2.1h-2.1z"/><path  d="m102.6 119.1h2.1v2.1h-2.1z"/><path  d="m112.8 119.1h2.2v2.1h-2.2z"/><path  d="m114.9 119.1h2.1v2.1h-2.1z"/><path  d="m116.9 119.1h2.1v2.1h-2.1z"/><path  d="m119 119.1h2.1v2.1h-2.1z"/><path fill-rule="evenodd" d="m20.9 20.9h14.3v14.3h-14.3zm2 12.3h10.2v-10.3h-10.2z"/><path fill-rule="evenodd" d="m106.7 20.9h14.3v14.3h-14.3zm2.1 12.3h10.2v-10.3h-10.2z"/><path fill-rule="evenodd" d="m20.9 106.8h14.3v14.3h-14.3zm2 12.3h10.2v-10.2h-10.2z"/><path  d="m25 25h6.1v6.1h-6.1z"/><path  d="m110.8 25h6.1v6.1h-6.1z"/><path  d="m25 110.9h6.1v6.1h-6.1z"/></svg>